<?xml version="1.0" standalone="no"?>
<!DOCTYPE svg PUBLIC "-//W3C//DTD SVG 1.1//EN" "http://www.w3.org/Graphics/SVG/1.1/DTD/svg11.dtd" >
<svg xmlns="http://www.w3.org/2000/svg" xmlns:xlink="http://www.w3.org/1999/xlink" version="1.1">
<metadata>
Created by FontForge 20170731 at Sat Jan  7 00:27:53 2012
 By Aleksey,,,
Copyright (c) 2011 by Constanza Artigas Preller. All rights reserved.
</metadata>
<defs>
<font id="Inika-Bold" horiz-adv-x="595" >
  <font-face 
    font-family="Inika"
    font-weight="700"
    font-stretch="normal"
    units-per-em="1000"
    panose-1="2 0 0 0 0 0 0 0 0 0"
    ascent="800"
    descent="-200"
    x-height="508"
    cap-height="700"
    bbox="-98 -297 1194 982"
    underline-thickness="50"
    underline-position="-150"
    unicode-range="U+0020-FB02"
  />
<missing-glyph horiz-adv-x="500" 
 />
    <glyph glyph-name=".notdef" horiz-adv-x="500" 
 />
    <glyph glyph-name=".null" unicode="&#xe000;" horiz-adv-x="0" 
 />
    <glyph glyph-name="nonmarkingreturn" horiz-adv-x="333" 
 />
    <glyph glyph-name="space" unicode=" " horiz-adv-x="260" 
 />
    <glyph glyph-name="exclam" unicode="!" horiz-adv-x="291" 
d="M214 187q-15 -3 -38.5 -3t-56.5 5l-24 533q29 3 63.5 3t69.5 -8zM100 124q39 3 66.5 3t67.5 -9q4 -29 4 -52.5t-9 -68.5q-39 -3 -66.5 -3t-67.5 9q-4 29 -4 52.5t9 68.5z" />
    <glyph glyph-name="quotedbl" unicode="&#x22;" horiz-adv-x="406" 
d="M217 733q8 -40 8 -76t-7 -86.5t-20 -77.5q-26 -7 -37 -7h-15q-14 2 -29 2q4 28 4 53q0 81 -46 185q51 11 70.5 11t71.5 -4zM390 733q9 -45 9 -78.5t-7 -84t-21 -77.5q-25 -7 -45 -7l-36 2q5 28 5 53q0 77 -46 185q50 11 69.5 11t71.5 -4z" />
    <glyph glyph-name="numbersign" unicode="#" horiz-adv-x="667" 
d="M370 187l-112 1l-22 -184q-28 -7 -43 -7l-53 6l16 186l-125 2q-5 26 -5 42l4 45q68 7 113 7h21q3 38 13 152l-120 2q-5 25 -5 42l4 45q68 7 113 7h16l14 165q49 3 68.5 3t53.5 -3l-21 -167q60 0 99 -1q12 129 15 168q50 3 69 3t53 -3l-22 -169q86 0 122 -3q2 -28 2 -44.5
t-5 -40.5q-68 -7 -112 -7h-18l-19 -153l123 -1q4 -30 4 -46t-4 -41q-68 -7 -112 -7h-22l-22 -182q-28 -7 -43 -7l-53 6zM270 284l109 -2q2 28 13 153q-69 0 -103 1z" />
    <glyph glyph-name="dollar" unicode="$" horiz-adv-x="503" 
d="M145 198l33 -2l12 -104q38 -14 70.5 -14t55 17.5t22.5 41.5t-16 40t-33 25.5t-51.5 26t-56 28.5t-49.5 33q-53 41 -53 105t36 105.5t99 53.5l-1 117q27 9 55 9t52 -8q-2 -78 -2 -117q66 -10 127 -41q2 -19 2 -59.5t-11 -89.5q-8 -3 -44 -8t-52 -5l-34 111q-15 5 -40 5
t-42 -16.5t-17 -41t24.5 -42.5t64.5 -37t57 -28t42 -25.5t39 -32.5q34 -41 34 -87q0 -68 -43 -110.5t-113 -55.5l-1 -107q-21 -8 -42.5 -8t-46.5 7q0 36 -2 106q-96 12 -160 60q0 71 15 142q48 6 70 6z" />
    <glyph glyph-name="percent" unicode="%" horiz-adv-x="852" 
d="M85.5 690.5q45.5 55.5 136 55.5t137.5 -54t47 -146.5t-47 -151t-137 -58.5q-182 0 -182 204q0 95 45.5 150.5zM486.5 341.5q45.5 55.5 136 55.5t137 -54t46.5 -147t-46.5 -151t-136.5 -58q-182 0 -182 204q0 95 45.5 150.5zM709 677l-505 -696q-38 18 -71 49l479 710
q60 -25 97 -63zM192 425q12 -8 31.5 -8t33 10t18.5 31q8 32 8 68.5t-1.5 53.5t-6.5 40q-10 45 -53 45q-33 0 -48 -25q-12 -20 -13 -48t-1 -51.5t0.5 -36t4 -31.5t9.5 -29.5t18 -18.5zM593 77q12 -8 29.5 -8t29.5 8t18 18t10 28q4 23 4 56.5t-1.5 51t-6.5 39.5q-10 46 -53 46
q-33 0 -48 -25q-12 -20 -13 -48t-1 -51t0.5 -36t4 -31.5t9.5 -29t18 -18.5z" />
    <glyph glyph-name="ampersand" unicode="&#x26;" horiz-adv-x="728" 
d="M320 623q-40 0 -57 -23.5t-17 -48.5t10.5 -47t23 -36.5t37.5 -40t50 -53.5l129 -150q10 10 15 19t11.5 20t10.5 24.5t9 32.5q8 35 10 98l-79 10q0 43 23 87h252l-4 -57q-35 -21 -78 -29q0 -84 -36.5 -160t-67.5 -106l121 -135q-22 -46 -74 -46l-109 96
q-40 -37 -97.5 -63.5t-102.5 -26.5q-110 0 -185 56.5t-75 160.5q0 62 36.5 111.5t88.5 78.5q-58 68 -58 144.5t55 124.5t151 48q51 0 100 -24t78 -53l-18 -108q-22 -11 -47.5 -11t-37.5 2l-24 101q-28 4 -44 4zM193 271.5q-19 -30.5 -19 -64.5t14 -60.5t36 -39.5
q42 -25 79 -25q77 0 133 61l-191 178q-33 -19 -52 -49.5z" />
    <glyph glyph-name="quotesingle" unicode="'" horiz-adv-x="205" 
d="M191 733q9 -45 9 -78.5t-7 -84t-21 -77.5q-25 -7 -45 -7l-36 2q5 28 5 53q0 77 -46 185q49 11 69 11t72 -4z" />
    <glyph glyph-name="parenleft" unicode="(" horiz-adv-x="326" 
d="M326 692q-124 -288 -124 -444t124 -442l18 -44q-30 -34 -82 -42q-67 88 -129.5 245.5t-62.5 283.5t62.5 283.5t129.5 245.5q50 -13 82 -42z" />
    <glyph glyph-name="parenright" unicode=")" horiz-adv-x="326" 
d="M33 -194q124 286 124 442t-124 444l-18 44q32 29 82 42q67 -88 129.5 -245.5t62.5 -283.5t-62.5 -283.5t-129.5 -245.5q-52 8 -82 42z" />
    <glyph glyph-name="asterisk" unicode="*" horiz-adv-x="430" 
d="M193 640l-3 81q0 11 1 14q30 10 54.5 10t47.5 -6q12 -10 18 -38q-3 -10 -27 -44.5t-26 -39.5q3 2 40.5 25t48.5 26q43 -45 52 -77q0 -14 -27 -35q-12 -2 -25 -2t-41 1.5t-38 1.5q6 -4 30 -17q57 -30 66 -39q-13 -50 -40 -77q-8 -2 -22.5 -2t-33.5 7q-12 14 -36 75l3 -81
q0 -11 -1 -14q-32 -10 -56.5 -10t-45.5 6q-13 9 -19 37q4 11 26 44.5t25 39.5q-3 -2 -40.5 -25t-47.5 -25q-42 45 -50 77q0 13 26 35q12 2 25 2t40 -1.5t36 -1.5q-6 4 -29 17q-56 31 -64 39q14 50 40 77q10 2 21.5 2t35.5 -8q5 -6 19.5 -38.5t16.5 -35.5z" />
    <glyph glyph-name="plus" unicode="+" horiz-adv-x="526" 
d="M322 1q-33 -3 -57.5 -3t-43.5 4q-14 74 -14 118.5t1 90.5l-177 4q-4 19 -4 41t3 45q78 14 134 14h46l4 197q19 4 43.5 4t57.5 -3q13 -73 13 -128v-73l182 -4q4 -19 4 -41.5t-3 -43.5q-78 -15 -114 -15t-72 1z" />
    <glyph glyph-name="comma" unicode="," horiz-adv-x="210" 
d="M185 128q9 -36 9 -82t-39 -101.5t-73 -76.5q-35 15 -57 40q13 39 57 91l-25 3q-9 31 -9 63.5t3 57.5q41 9 61.5 9t72.5 -4z" />
    <glyph glyph-name="hyphen" unicode="-" horiz-adv-x="327" 
d="M310 299q4 -19 4 -41.5t-3 -46.5q-69 -7 -113 -7l-145 6q-5 18 -5 41.5t3 47.5q69 7 113 7z" />
    <glyph glyph-name="period" unicode="." horiz-adv-x="208" 
d="M188 127q9 -36 9 -61.5t-3 -57.5q-34 -9 -65 -9t-68 3q-10 40 -10 58.5t4 60.5q33 9 63.5 9t69.5 -3z" />
    <glyph glyph-name="slash" unicode="/" horiz-adv-x="407" 
d="M334 703q26 0 77 -9l-266 -693q-21 -5 -58 -5t-57 3l252 700q26 4 52 4z" />
    <glyph glyph-name="zero" unicode="0" horiz-adv-x="527" 
d="M278 552q124 0 181 -71.5t57 -203t-57 -210.5t-182 -79t-179 70.5t-54 213.5q0 280 234 280zM278 79q30 0 50.5 11t31 27t16.5 45q8 38 8 111q0 188 -106 188q-29 0 -50 -12t-32 -28t-17 -43q-8 -36 -8 -85.5t1.5 -74t7 -54t16.5 -46t31.5 -28t50.5 -11.5z" />
    <glyph glyph-name="one" unicode="1" horiz-adv-x="360" 
d="M283 489q0 -12 -10 -393l83 -9q0 -44 -23 -87h-278l-9 55q74 28 112 36q-9 314 -9 317q-62 -24 -97 -28q-26 46 -27 88l211 73q35 -19 47 -52z" />
    <glyph glyph-name="two" unicode="2" horiz-adv-x="453" 
d="M167 341l-36 -1q-18 0 -58 7q-19 52 -20 131q27 27 77.5 50.5t95.5 23.5q92 0 148.5 -47t56.5 -109t-27 -109t-96 -107l-105 -91h109q11 79 14 89q12 2 37 2t52 -11q14 -70 14 -134l-1 -35h-365q-17 36 -17 77q218 210 240 249q13 23 13 67q0 24 -20 47t-61 23
q-19 0 -28 -1q-5 -22 -13 -66.5t-10 -54.5z" />
    <glyph glyph-name="three" unicode="3" horiz-adv-x="474" 
d="M292 381q0 85 -90 85q-9 0 -23 -2l-23 -122q-70 0 -93 6q-20 56 -20 121v9q23 28 75.5 50.5t91.5 22.5q93 0 153 -45.5t60 -111.5q0 -87 -87 -142q48 -15 81 -58.5t33 -109.5t-43 -120.5t-100 -80t-123.5 -25.5t-154.5 30q2 51 22 80l30 -6q48 -12 78.5 -12t46.5 3t45 13
t48 37t19 72t-31 75.5t-80 30.5q-3 0 -69 -6q-10 42 -10 55t2 33l59 8q43 6 73 35.5t30 74.5z" />
    <glyph glyph-name="four" unicode="4" horiz-adv-x="532" 
d="M525 118l1 -23q0 -39 -17 -68h-86l-7 -156q-17 -4 -46 -4t-53 3l-7 157h-275q-20 29 -20 61q0 8 2 12l255 440h162q0 -4 -9 -421zM308 120l-7 251l-149 -253q52 0 156 2z" />
    <glyph glyph-name="five" unicode="5" horiz-adv-x="451" 
d="M292 146.5q-27 34.5 -80.5 34.5t-87.5 -9q-12 7 -32 26.5t-29 31.5l-11 310h394q7 -27 7 -80.5t-22 -119.5q-29 -7 -55.5 -7t-38.5 1l-21 114h-139l-12 -179q20 9 47 9q103 0 171 -53t68 -149t-78.5 -156.5t-193.5 -60.5q-28 0 -74.5 8.5t-74.5 20.5q0 18 7 45t15 35
q51 -18 126 -18q44 0 78 15q63 29 63 110q0 37 -27 71.5z" />
    <glyph glyph-name="six" unicode="6" horiz-adv-x="559" 
d="M427 722q6 -22 6 -45.5t-5 -37.5q-207 -16 -240 -227q69 37 125 37q103 0 164 -54.5t61 -169.5t-63 -176t-166 -61q-71 0 -123 30t-80 82q-55 99 -55 244q0 93 34.5 167.5t90.5 118.5q114 92 251 92zM187 296l3 -58v-2q6 -69 36 -113.5t78 -44.5q102 0 102 162
q0 61 -23.5 89t-76 28t-119.5 -44v-17z" />
    <glyph glyph-name="seven" unicode="7" horiz-adv-x="464" 
d="M427 513.5q13 -21.5 13 -30.5t-1 -14q-55 -176 -128.5 -388t-78.5 -224q-62 8 -92 32l164 560h-144l-23 -115q-12 -2 -36 -2l-58 7q-21 63 -21 140q0 22 6 61h378q8 -5 21 -26.5z" />
    <glyph glyph-name="eight" unicode="8" horiz-adv-x="528" 
d="M498 189q0 -86 -54.5 -143.5t-167.5 -57.5q-80 0 -150 42q-36 22 -58.5 61t-22.5 92.5t31 97.5t83 85q-99 55 -99 173q0 85 58 134t159.5 49t159 -51t57.5 -118.5t-31 -117.5t-80 -81q70 -48 92.5 -87t22.5 -78zM371 172q0 49 -28 80.5t-98 69.5q-68 -56 -68 -138
q0 -46 33.5 -77t66.5 -31q94 0 94 96zM362 545q0 86 -86 86q-29 0 -65 -10q-19 -38 -19 -77q0 -94 87 -133q4 -1 10.5 -4.5t9.5 -4.5q63 47 63 143z" />
    <glyph glyph-name="nine" unicode="9" horiz-adv-x="523" 
d="M98 -81q0 10 1 13q113 8 168.5 54t75.5 137q-46 -19 -85 -19q-103 0 -164 63t-61 160t61.5 161t170.5 64t170 -73.5t61 -196.5q0 -188 -96 -302.5t-286 -120.5q-16 23 -16 60zM275 193q22 0 86 35q5 36 5 67.5t-4 56t-13.5 51.5t-30.5 43t-50 16q-101 0 -104 -140
q0 -64 30 -96.5t81 -32.5z" />
    <glyph glyph-name="colon" unicode=":" horiz-adv-x="238" 
d="M203 127q9 -36 9 -61.5t-3 -57.5q-35 -9 -65 -9t-68 3q-10 40 -10 58.5t4 60.5q33 9 63.5 9t69.5 -3zM203 451q9 -36 9 -61.5t-3 -57.5q-35 -9 -65 -9t-68 3q-10 40 -10 58.5t4 60.5q33 9 63.5 9t69.5 -3z" />
    <glyph glyph-name="semicolon" unicode=";" horiz-adv-x="235" 
d="M200 451q9 -36 9 -61.5t-3 -57.5q-34 -9 -65 -9t-68 3q-10 40 -10 58.5t4 60.5q33 9 63.5 9t69.5 -3zM200 128q9 -36 9 -82t-39 -101.5t-73 -76.5q-35 15 -57 40q13 39 57 91l-25 3q-9 31 -9 63.5t3 57.5q41 9 61.5 9t72.5 -4z" />
    <glyph glyph-name="less" unicode="&#x3c;" horiz-adv-x="441" 
d="M50 230q-4 16 -4 30.5t4 28.5q122 122 166 163q63 60 138 108l49 -67q-188 -197 -226 -231l17 -15l220 -215l-60 -68q-73 47 -102 74q-187 174 -202 192z" />
    <glyph glyph-name="equal" unicode="=" horiz-adv-x="596" 
d="M535 227q5 -26 5 -45l-3 -42q-79 -15 -134 -15l-328 7q-5 25 -5 42l4 44q78 15 134 15zM537 394q3 -27 3 -45l-3 -42q-79 -15 -134 -15l-328 7q-5 25 -5 42l4 43q78 15 134 15z" />
    <glyph glyph-name="greater" unicode="&#x3e;" horiz-adv-x="466" 
d="M434 289q4 -14 4 -28.5t-4 -30.5q-5 -6 -89 -85.5t-103 -96.5q-37 -36 -112 -84l-60 68q195 193 237 230l-17 15l-209 216l49 67q73 -47 128 -98t176 -173z" />
    <glyph glyph-name="question" unicode="?" horiz-adv-x="482" 
d="M309 525q11 30 11 61.5t-20 53t-55 21.5q-18 0 -38 -6l-23 -105l-92 4q-18 51 -22 127q88 68 191 68q184 0 184 -177q0 -32 -13.5 -67t-27.5 -56.5t-41 -59.5q-58 -82 -69 -130q-3 -14 -3 -80q-36 -7 -80 -7q-18 42 -28 96q10 63 72 157q20 31 31.5 50.5t22.5 49.5z
M319 5q-32 -8 -64 -8t-59 4q-8 34 -8 70t3 54q32 6 64.5 6t58.5 -3q8 -32 8 -65.5t-3 -57.5z" />
    <glyph glyph-name="at" unicode="@" horiz-adv-x="915" 
d="M477 64q17 0 101 52q0 1 -3 94l-76 -7q-81 -8 -81 -75q0 -64 59 -64zM703 306l-4 -230q36 -5 80 -18q44 88 44 202q0 153 -88 235t-238.5 82t-238.5 -82t-88 -238.5t96 -258.5t228 -102q78 0 187 21t145 42q10 -10 19.5 -34.5t11.5 -44.5q-39 -26 -154.5 -48t-207.5 -22
q-185 0 -305 126t-120 319.5t110.5 301.5t316 108t316 -102.5t110.5 -287.5q0 -79 -47 -162t-100 -108q-22 -10 -71 -21.5t-97 -11.5q-7 14 -19 50q-89 -56 -133 -56q-77 0 -123.5 40.5t-46.5 113.5q0 164 202 171q51 0 83 2l-1 16q-2 56 -19.5 82t-61.5 26l-32 -6l-23 -101
l-36 -1l-57 7q-19 52 -20 134q21 11 93.5 34t91.5 23q108 0 152.5 -47.5t44.5 -153.5z" />
    <glyph glyph-name="A" unicode="A" horiz-adv-x="739" 
d="M519 689l1 -10q0 -41 -13 -70q-13 -10 -41 -16l167 -494l95 -12q0 -41 -23 -87h-243l-9 55q42 16 55 21l-40 113h-225q-30 -89 -32 -93l69 -9q0 -21 -8 -48.5t-15 -38.5h-243l-9 55q45 19 81 28l168 514q-67 10 -101 26q0 29 9 51q21 7 98.5 16.5t148 9.5t110.5 -11z
M390 414l-29 132h-10l-32 -138l-47 -125h167z" />
    <glyph glyph-name="B" unicode="B" horiz-adv-x="630" 
d="M299 92q155 0 155 111q0 81 -37.5 102.5t-168.5 21.5l-4 -233q34 -2 55 -2zM402 429q32 18 32 75.5t-37 76.5t-112 19h-36q-2 -126 -2 -190l46 -1q77 2 109 20zM294 -1h-247l-9 55q52 21 84 29q0 3 -9 529q-16 4 -83 26l8 61h277q119 0 185 -46t66 -133q0 -42 -22.5 -91
t-51.5 -58q44 -24 69 -67t25 -99q0 -92 -75 -149t-217 -57z" />
    <glyph glyph-name="C" unicode="C" horiz-adv-x="591" 
d="M477 474l-31 1l-29 120q-58 10 -87 10q-57 0 -128 -23q-21 -39 -33 -100t-12 -115q0 -276 159 -276q68 0 108 20l21 122q63 0 96 -7q16 -109 16 -177q-24 -18 -96.5 -40t-142.5 -22q-298 0 -298 368q0 175 72.5 266t231.5 91q79 0 140 -23q54 -20 92 -44q0 -68 -15 -164
q-28 -7 -64 -7z" />
    <glyph glyph-name="D" unicode="D" horiz-adv-x="667" 
d="M635 365q0 -220 -105 -306q-43 -34 -93 -46.5t-131 -12.5h-259l-9 55q76 28 84 29q0 3 -9 529q-44 11 -83 26q6 52 8 61h265q98 0 156.5 -20t103.5 -71q72 -84 72 -244zM466.5 152q37.5 55 37.5 190t-42 196.5t-140 61.5h-73q-4 -337 -5 -503h71q114 0 151.5 55z" />
    <glyph glyph-name="E" unicode="E" 
d="M249 600q0 -114 -2 -196h102l10 69q51 0 99 -25v-200l-66 -3q-24 36 -28 63h-118q-2 -140 -2 -211h171l22 87q62 0 94 -6q15 -57 15 -103.5t-3 -74.5h-496l-9 55q65 25 84 29q-1 59 -2 166q-4 240 -7 363l-83 26l8 61h491q3 -27 3 -67.5t-15 -112.5q-31 -10 -94 -10
l-23 90h-151z" />
    <glyph glyph-name="F" unicode="F" horiz-adv-x="556" 
d="M249 600q0 -140 -2 -220h102l10 69q51 0 99 -25v-198l-66 -5q-24 36 -28 63h-118l-2 -188l99 -11q0 -39 -23 -85h-273l-9 55q65 25 84 29q-1 59 -2 166q-4 240 -7 363l-83 26l8 61h491q3 -27 3 -68.5t-15 -113.5q-22 -7 -67 -7l-22 1h-5l-23 88h-151z" />
    <glyph glyph-name="G" unicode="G" horiz-adv-x="655" 
d="M318 -13q-136 0 -217 92t-81 272t70.5 270.5t228.5 90.5q67 0 128.5 -18t83.5 -30.5t35 -22.5q0 -64 -16 -142q-26 -12 -51.5 -12t-43.5 2l-21 104q-44 12 -86 12q-59 0 -147 -24q-44 -88 -44 -214q0 -276 162 -276q81 0 129 27q2 52 4 160l-84 26l8 61h242
q12 -22 18 -79q-34 -7 -73 -10q6 -129 6 -222q-29 -19 -105 -43t-146 -24z" />
    <glyph glyph-name="H" unicode="H" horiz-adv-x="744" 
d="M512 84l-4 236h-262q-2 -150 -2 -224l69 -9q0 -41 -23 -87h-243l-9 55q56 23 84 29q0 3 -9 529l-83 26l8 61h259q16 -27 19 -79q-51 -8 -67 -10q-2 -130 -2 -195h259l-3 197l-83 26l8 61h259q16 -27 19 -79q-51 -8 -67 -10l-5 -515l69 -9q0 -41 -23 -87h-243l-9 55
q56 23 84 29z" />
    <glyph glyph-name="I" unicode="I" horiz-adv-x="380" 
d="M323 700q-1 0 0.5 -2t4 -8.5t5.5 -15.5q6 -16 8 -53q-51 -8 -67 -10l-5 -515l69 -9q0 -41 -23 -87h-243l-9 55q56 23 84 29q-1 59 -3 166q-3 240 -6 363l-83 26l8 61h260z" />
    <glyph glyph-name="J" unicode="J" horiz-adv-x="464" 
d="M185 93q63 0 63 96q0 36 -11 424l-83 26l8 61h260q18 -39 18 -79q-60 -10 -67 -10q-1 -58 -1.5 -207t-2.5 -233.5t-44 -134t-122 -49.5q-58 0 -115.5 18t-82.5 42q1 73 16 166q40 11 98 11l19 -127q16 -4 47 -4z" />
    <glyph glyph-name="K" unicode="K" horiz-adv-x="692" 
d="M245 216l-1 -120l69 -9q0 -41 -23 -87h-243l-9 55q56 23 84 29q0 3 -9 529l-83 26l8 61h259q16 -27 19 -79q-51 -8 -67 -10l-3 -226l197 226l-63 10q0 30 18 79h260q6 -36 8 -61q-53 -20 -83 -26l-183 -238l202 -278l89 -9q0 -42 -23 -88h-143l-206 296z" />
    <glyph glyph-name="L" unicode="L" horiz-adv-x="592" 
d="M467 182q24 4 36.5 4t54.5 -7q4 -8 11.5 -51t7.5 -69.5t-6 -58.5h-485l-9 55q49 20 84 29q0 3 -9 529l-83 26l8 61h260q-1 0 0.5 -2t4 -8.5t5.5 -15.5q6 -16 8 -53q-51 -8 -67 -10q-4 -345 -5 -515h162z" />
    <glyph glyph-name="M" unicode="M" horiz-adv-x="972" 
d="M519 204l92 496h260q8 -43 8 -61q-48 -17 -83 -26l71 -517l69 -9q0 -41 -23 -87h-243l-9 55q56 23 84 29l-77 408l-102 -443h-102l-158 489l-85 -442l69 -9q0 -41 -23 -87h-243l-9 55q56 23 84 29l71 529l-83 26l8 61h280l134 -496h10z" />
    <glyph glyph-name="N" unicode="N" horiz-adv-x="785" 
d="M710 611l-3 -611h-128l-330 538q-4 -293 -5 -442l69 -9q0 -41 -23 -87h-243l-9 55q56 23 84 29q0 3 -9 529l-83 26l8 61h260l291 -522l-15 435l-83 26l8 61h260q-1 0 0.5 -2t4 -8.5t5.5 -15.5q6 -16 8 -53q-51 -8 -67 -10z" />
    <glyph glyph-name="O" unicode="O" horiz-adv-x="647" 
d="M330 94q166 0 166 255t-166 255q-72 0 -126 -22q-46 -96 -46 -222.5t38 -196t134 -69.5zM330 712q167 0 235 -87.5t68 -267.5q0 -113 -29 -193t-98 -128t-176 -48q-163 0 -236.5 91t-73.5 265q0 368 310 368z" />
    <glyph glyph-name="P" unicode="P" horiz-adv-x="575" 
d="M316 700q127 0 189 -44t62 -160q0 -97 -60 -161.5t-192 -64.5q-43 0 -68 1l-2 -176l73 -8q0 -44 -23 -87h-247l-9 55q52 21 84 29q0 3 -9 529q-16 4 -83 26l8 61h277zM398 402q37 36 37 93t-32.5 81.5t-101.5 24.5q-27 0 -51 -1q-2 -158 -2 -236l46 1q67 1 104 37z" />
    <glyph glyph-name="Q" unicode="Q" horiz-adv-x="639" 
d="M359 -45q40 -11 81 -28.5t52 -20.5q47 -15 145 -15q-4 -38 -12.5 -66t-22.5 -46q-75 4 -133 26q-16 6 -58 24.5t-74 28t-60.5 9.5t-80 -12.5t-52.5 -12.5q-36 31 -36 69q61 28 104.5 41.5t75 13.5t71.5 -11zM330 94q166 0 166 255t-166 255q-72 0 -126 -22
q-46 -96 -46 -222.5t38 -196t134 -69.5zM330 712q167 0 235 -87.5t68 -267.5q0 -113 -29 -193t-98 -128t-176 -48q-163 0 -236.5 91t-73.5 265q0 368 310 368z" />
    <glyph glyph-name="R" unicode="R" horiz-adv-x="656" 
d="M281 700q175 0 232 -50q52 -45 52 -139q0 -146 -152 -199l144 -217l86 -9q0 -43 -23 -86h-145l-196 299h-32l-3 -204l73 -8q0 -41 -23 -87h-247l-9 55q60 24 84 29q-2 123 -5 297t-4 233l-83 25q1 23 9 61h242zM360 593q-31 7 -83 7h-28q-2 -138 -2 -207l49 1
q59 1 93.5 24.5t34.5 91.5t-64 83z" />
    <glyph glyph-name="S" unicode="S" horiz-adv-x="573" 
d="M294 96q116 0 116 99q0 42 -44 71q-32 22 -87.5 47.5t-83 40.5t-63.5 42q-69 53 -69 132t61.5 131.5t166.5 52.5t224 -67q0 -72 -15 -156q-32 -10 -95 -10l-29 119q-37 11 -81 11t-68 -19t-24 -56.5t37.5 -67t90.5 -54t73 -34.5t51 -30t47 -38q41 -48 41 -107
q0 -104 -69 -160t-180 -56q-59 0 -129.5 20.5t-119.5 52.5q2 61 16 165q40 8 96 8l21 -120q55 -17 116 -17z" />
    <glyph glyph-name="T" unicode="T" horiz-adv-x="621" 
d="M36 518q-16 69 -16 109t3 73h581q4 -48 4 -65q0 -43 -16 -117q-29 -8 -95 -8l-23 101h-85q-1 -38 -9 -515l72 -9q0 -46 -23 -87h-243l-9 55q69 26 87 29q0 4 -12 526h-99l-22 -98q-59 0 -95 6z" />
    <glyph glyph-name="U" unicode="U" horiz-adv-x="754" 
d="M574 363l-4 250l-83 26l8 61h260q-1 0 0.5 -2t4 -8.5t5.5 -15.5q6 -16 8 -53q-51 -8 -67 -10l-2 -254q-2 -191 -69.5 -280t-230.5 -89t-227 83t-66 268.5t-4 273.5l-83 26l8 61h260q-1 0 0.5 -2t4 -8.5t5.5 -15.5q6 -16 8 -53q-51 -8 -67 -10l-3 -254q0 -111 12 -157.5
t30 -65.5q39 -40 124 -40q82 0 124 46q34 37 41 130q3 37 3 93z" />
    <glyph glyph-name="V" unicode="V" horiz-adv-x="730" 
d="M373 187q18 62 134 425l-89 27l8 61h259q18 -36 19 -79l-62 -9l-199 -612h-133l-215 612l-89 27l8 61h259q18 -36 19 -79q-43 -7 -59 -9z" />
    <glyph glyph-name="W" unicode="W" horiz-adv-x="1078" 
d="M682 0l-132 545h-10l-134 -545h-156l-160 616q-31 8 -84 29l9 55h243q23 -46 23 -87q-30 -6 -69 -9l105 -442l158 538h152l131 -532l108 448q-31 8 -84 29l9 55h243q23 -46 23 -87q-30 -6 -69 -9l-162 -604h-144z" />
    <glyph glyph-name="X" unicode="X" horiz-adv-x="722" 
d="M443 611q-41 5 -63 10q0 30 18 79h260q6 -36 8 -61q-53 -20 -83 -26l-180 -253l190 -263l89 -9q0 -42 -23 -88h-244l-9 55q19 7 56 23l-135 185l-111 -167l69 -9q0 -42 -24 -87h-242l-9 55q43 20 84 29l164 276l-182 253l-61 8q4 54 18 79h270q8 -43 8 -61
q-57 -21 -83 -26q16 -24 52 -74.5t59 -85.5z" />
    <glyph glyph-name="Y" unicode="Y" horiz-adv-x="678" 
d="M408 262l-1 -166l69 -9q0 -41 -23 -87h-243l-9 55q69 27 84 29q0 59 -2 177l-189 351l-88 27l8 61h260q18 -33 18 -79q-23 -4 -59 -9l107 -241h9l114 242q-34 7 -83 26l7 61h261q17 -25 18 -79q-39 -8 -78 -11z" />
    <glyph glyph-name="Z" unicode="Z" horiz-adv-x="596" 
d="M182 494l-31 -1q-28 0 -58 12q-18 78 -18 122t4 73h459q24 -32 32 -79l-352 -525h217l22 107l32 1q28 0 58 -12q17 -75 17 -118t-4 -74h-483q-25 32 -32 77l351 524h-190z" />
    <glyph glyph-name="bracketleft" unicode="[" horiz-adv-x="368" 
d="M218 667l-4 -775l119 -8q0 -51 -4 -72q-16 -5 -96.5 -11.5t-113.5 -6.5q-4 4 -11.5 26t-8.5 38q-4 279 -14 851q1 16 9 38.5t11 25.5q34 0 121 -6.5t103 -11.5q3 -24 3 -72q-16 -5 -114 -16z" />
    <glyph glyph-name="backslash" unicode="\" horiz-adv-x="407" 
d="M411 -1q-20 -3 -57 -3t-58 5l-266 693q51 9 77 9t52 -4z" />
    <glyph glyph-name="bracketright" unicode="]" horiz-adv-x="318" 
d="M159 -108l-4 775q-98 11 -114 16q0 48 3 72q16 5 103 11.5t121 6.5q3 -3 11 -25.5t9 -38.5q-10 -572 -14 -851q-1 -16 -8.5 -38t-11.5 -26q-33 0 -113.5 6.5t-96.5 11.5q-4 21 -4 72q68 6 119 8z" />
    <glyph glyph-name="asciicircum" unicode="^" horiz-adv-x="512" 
d="M223 700q4 2 33 2t38 -3l158 -303q-5 -6 -22 -12.5t-24 -6.5q-70 51 -96 99q-6 10 -21.5 44t-32.5 68q-17 -34 -32.5 -68t-24.5 -49.5t-33 -40.5t-60 -53q-7 0 -24 6.5t-22 12.5q157 299 163 304z" />
    <glyph glyph-name="underscore" unicode="_" horiz-adv-x="503" 
d="M511 -125q3 -25 3 -44l-4 -41q-78 -15 -133 -15l-371 7q-6 28 -6 42l5 43q78 15 134 15z" />
    <glyph glyph-name="grave" unicode="`" horiz-adv-x="833" 
d="M259 747l158 -131q-28 -36 -62 -63q-101 50 -159 107q2 18 17.5 39.5t45.5 47.5z" />
    <glyph glyph-name="a" unicode="a" horiz-adv-x="539" 
d="M219 -12q-85 0 -131.5 35t-46.5 118q0 79 55 129q32 29 89 34t157 5v16q0 61 -19.5 89.5t-68.5 28.5q-25 0 -45 -10l-24 -87l-74 2q-25 38 -27 121q20 10 94 30.5t95 20.5q108 0 157 -44.5t49 -141t-9 -254.5q57 -5 88 -17q1 -12 1 -29l-1 -22q-72 -24 -145 -24
q-19 0 -28 1q-15 30 -18 72h-5q-19 -18 -66.5 -45.5t-76.5 -27.5zM189.5 86.5q20.5 -15.5 46.5 -15.5t62 23.5t58 42.5l-5 92q-79 -4 -119 -15q-63 -13 -63 -79q0 -33 20.5 -48.5z" />
    <glyph glyph-name="b" unicode="b" horiz-adv-x="529" 
d="M209 743q24 0 31 -1q0 -52 -13 -91l-3 -168q93 37 128 37q99 0 146.5 -73.5t47.5 -190.5t-53 -192.5t-154 -75.5q-66 0 -139 50q-4 -23 -12 -42q-18 -2 -36 -2t-45 6l-21 640q-47 5 -79 15q0 37 7 72q58 16 195 16zM335 415q-65 0 -112 -23q-2 -168 -4 -254
q24 -20 55 -36t53 -16q87 0 87 160q0 68 -18.5 118.5t-60.5 50.5z" />
    <glyph glyph-name="c" unicode="c" horiz-adv-x="472" 
d="M307 437l-16 1q-56 0 -89.5 -38.5t-33.5 -129t25.5 -137.5t98.5 -47q34 0 144 46q25 -35 27 -73q-55 -34 -107.5 -53t-74.5 -19q-123 0 -184 67.5t-61 189.5q0 276 249 276q43 0 88.5 -10.5t71.5 -26.5q-3 -100 -22 -145q-33 -8 -93 -8z" />
    <glyph glyph-name="d" unicode="d" horiz-adv-x="565" 
d="M479 743q19 0 24 -1q0 -52 -13 -91q-4 -108 -9.5 -307.5t-7.5 -263.5q59 -8 88 -17v-48q-63 -27 -173 -27q-6 11 -16 54q-92 -50 -133 -54q-102 0 -152.5 74t-50.5 190.5t51 196t151 79.5q55 0 116 -34l-5 146q-47 5 -79 15q0 25 7 72q59 16 202 16zM254 430
q-86 0 -86 -166q0 -95 34 -143q19 -28 49 -28q51 0 115 35l-9 258q-57 44 -103 44z" />
    <glyph glyph-name="e" unicode="e" horiz-adv-x="512" 
d="M297 86q34 0 138 47q22 -32 33 -74q-55 -34 -107.5 -52.5t-74.5 -18.5q-121 0 -183.5 67t-62.5 190.5t62 199t184 75.5q97 0 148 -63t51 -164q0 -21 -24 -48l-288 5q2 -80 30 -122t94 -42zM277 437q-38 0 -71 -15q-23 -48 -29 -89q78 3 177 4q-5 100 -77 100z" />
    <glyph glyph-name="f" unicode="f" horiz-adv-x="368" 
d="M304 656l-18 1q-32 0 -45 -31.5t-14 -109.5q60 -1 94 -9q2 0 24 -3q-3 -45 -24 -86h-94q-4 -214 -5 -321q99 -7 110 -18q0 -33 -25 -79h-278l-9 55q78 28 90 30l-11 333h-70l3 57q26 18 67 26v27q0 118 46 172q42 49 122.5 49t170.5 -44l1 -16q0 -55 -14 -123
q-30 -8 -55 -8t-37 2z" />
    <glyph glyph-name="g" unicode="g" horiz-adv-x="578" 
d="M364 142.5q-37 -9.5 -71.5 -9.5t-60.5 7q-11 -26 -21 -39q8 -12 168 -12q100 0 141 -31q19 -13 33.5 -41t14.5 -72.5t-44 -89.5t-110 -71t-131 -26q-108 0 -175 42.5t-67 105.5q0 12 35 58.5t46 53.5q-10 5 -35 33.5t-28 40.5q13 36 80 90q-78 47 -78 158q0 88 60.5 134
t160 46t150.5 -27q85 15 120.5 15t46.5 -1q0 -24 -11.5 -54.5t-21.5 -42.5l-86 20q25 -36 25 -93t-19 -99.5t-52 -64t-70 -31zM436 -69q0 25 -22 36.5t-52 11.5q-117 0 -155 2q-8 -17 -20 -48.5t-12 -37.5t8 -17.5t34.5 -24.5t65 -13t90.5 18t56 29q7 19 7 44zM283 445
q-42 0 -65.5 -27t-23.5 -78.5t24 -80.5t65 -29q89 0 89 110q0 51 -23.5 78t-65.5 27z" />
    <glyph glyph-name="h" unicode="h" horiz-adv-x="617" 
d="M229 743l24 -1q0 -52 -13 -91q-2 -114 -2 -171q32 14 73 27t51 13q102 0 146.5 -46t44.5 -145q0 -10 -10 -233l78 -10q0 -43 -23 -86h-249l-9 55q67 27 86 29q-2 108 -5 191.5t-16 110.5t-41.5 27t-65 -6.5t-56.5 -15.5l-11 -295l78 -9q0 -41 -23 -87h-249l-9 55
q62 23 90 30l-19 555q-47 5 -79 15q0 25 7 72q59 16 202 16z" />
    <glyph glyph-name="i" unicode="i" horiz-adv-x="308" 
d="M239 512q19 0 24 -1q0 -49 -17 -91q-4 -216 -5 -324l78 -9q0 -41 -23 -87h-249l-9 55q62 23 90 30l-11 324q-59 6 -87 15q0 25 7 72q59 16 202 16zM239 701q9 -45 9 -68.5t-4 -52.5q-40 -9 -67.5 -9t-66.5 3q-9 45 -9 68.5t4 52.5q40 9 67.5 9t66.5 -3z" />
    <glyph glyph-name="j" unicode="j" horiz-adv-x="285" 
d="M41 -150l21 -1q33 0 48.5 34.5t15.5 85.5q0 125 -15 440q-59 6 -87 15q0 25 7 72q59 16 202 16q19 0 24 -1q0 -49 -17 -91l-4 -433q-1 -118 -37 -172.5t-141 -54.5q-34 0 -84.5 15.5t-71.5 29.5q5 96 21 144q23 9 61 9l33 -1zM233 701q9 -45 9 -68.5t-4 -52.5
q-40 -9 -67.5 -9t-66.5 3q-9 45 -9 68.5t4 52.5q40 9 67.5 9t66.5 -3z" />
    <glyph glyph-name="k" unicode="k" horiz-adv-x="591" 
d="M231 173l-1 -77l78 -9q0 -41 -23 -87h-249l-9 55q62 23 90 30l-19 555q-47 5 -79 15q0 37 7 72q59 16 202 16q19 0 24 -1q0 -52 -13 -91q-6 -240 -6 -356l119 118l-62 8q0 41 23 87h249l9 -55q-62 -23 -90 -30l-110 -110l140 -217l78 -9q0 -41 -23 -87h-128l-148 232z
" />
    <glyph glyph-name="l" unicode="l" horiz-adv-x="295" 
d="M228 743q19 0 24 -1q0 -52 -13 -91q-1 -62 -3 -175q-4 -248 -6 -380l78 -9q0 -41 -23 -87h-249l-9 55q62 23 90 30l-19 555q-47 5 -79 15q0 37 7 72q59 16 202 16z" />
    <glyph glyph-name="m" unicode="m" horiz-adv-x="928" 
d="M718.5 386q-14.5 27 -66 27t-95.5 -22q0 -128 -13 -295l79 -9q0 -41 -23 -87h-249l-9 55q52 19 91 30l-8 208q-2 65 -15.5 92.5t-51.5 27.5q-20 0 -58 -7t-58 -15q0 -3 -9 -295l78 -9q0 -44 -23 -87h-249l-9 55q59 23 90 30l-13 323q-41 4 -79 15l5 72q17 5 73 12t85 7
q4 -3 15 -18.5t15 -24.5q34 17 82.5 33t59.5 16q106 0 155 -55q38 20 92 37.5t67 17.5q95 0 142 -45t47 -150q0 -58 -9 -229l78 -9q0 -44 -23 -87h-248l-9 55q47 19 86 30q-1 23 -2 65q-2 69 -4 139t-16.5 97z" />
    <glyph glyph-name="n" unicode="n" horiz-adv-x="616" 
d="M509 471q45 -49 45 -137t-10 -238l79 -9q0 -41 -23 -87h-249l-9 55q47 19 87 30q-3 115 -6 193.5t-15 106.5t-53 28q-62 0 -111 -22q-1 -43 -5.5 -140.5t-5.5 -154.5l78 -9q0 -41 -23 -87h-249l-9 55q50 19 90 30q-1 60 -6.5 166t-6.5 157q-37 4 -79 15l5 72
q70 19 158 19q11 -7 30 -43q34 17 83 33t60 16q100 0 145 -49z" />
    <glyph glyph-name="o" unicode="o" horiz-adv-x="538" 
d="M295 440q-36 0 -82 -18q-13 -20 -24.5 -70.5t-11.5 -101.5q0 -94 28 -133.5t90.5 -39.5t90.5 39.5t28 136t-28.5 142t-90.5 45.5zM483.5 448.5q71.5 -71.5 71.5 -199t-71 -194.5t-189 -67t-188.5 67t-70.5 194.5t71 199t188 71.5t188.5 -71.5z" />
    <glyph glyph-name="p" unicode="p" horiz-adv-x="541" 
d="M350 -12q-58 0 -122 38q-2 -106 -2 -160l78 -9q0 -44 -23 -87h-249l-9 55q64 24 90 30l-19 555q-47 4 -79 15q0 37 7 72q42 9 186 16q8 -13 18 -44q104 51 137 51q99 0 147 -69.5t48 -186.5t-53.5 -196.5t-154.5 -79.5zM234 381l-4 -253q23 -21 54.5 -36.5t53.5 -15.5
q88 0 88 169q0 63 -12.5 101t-29 53.5t-38.5 15.5q-44 0 -112 -34z" />
    <glyph glyph-name="q" unicode="q" horiz-adv-x="575" 
d="M87 61q-51 74 -51 190.5t51 192.5t152 76q63 0 135 -43l24 36q81 0 177 -38q4 -18 4 -54q-63 -16 -80 -18l-9 -537l78 -9q0 -44 -23 -87h-249l-9 55q57 22 90 30l-6 171q-63 -31 -131 -39q-102 0 -153 74zM188 135q20 -51 67 -51t111 34q-3 136 -7 260q-57 44 -104 44
q-87 0 -87 -167q0 -69 20 -120z" />
    <glyph glyph-name="r" unicode="r" horiz-adv-x="449" 
d="M326 412q-2 5 -20 5t-62 -27q-4 -196 -5 -294l78 -10q0 -43 -23 -86h-249l-9 55q62 23 90 30l-11 324q-52 4 -87 15l7 72q27 12 195 16q9 -9 9 -35q88 43 111.5 43t58 -11.5t52.5 -24.5v-17q0 -82 -20 -152q-17 -7 -45 -7t-52 3q-3 13 -18 101z" />
    <glyph glyph-name="s" unicode="s" horiz-adv-x="452" 
d="M399 477l1 -31q0 -78 -12 -102q-33 -12 -92 -12l-32 101q-13 5 -36 5t-37.5 -14t-14.5 -33t15 -34.5t31 -24.5t46.5 -23.5t46 -22.5t40 -24t37.5 -30q32 -38 32 -83q0 -77 -58.5 -119t-143.5 -42q-45 0 -98.5 16t-90.5 43q0 72 14 134q40 5 65 5t34 -1l12 -97
q25 -9 60 -9t55.5 14t20.5 39.5t-23 42.5t-63 35.5t-62 31t-47 32.5q-51 39 -51 96q0 71 49.5 110.5t133.5 39.5t168 -43z" />
    <glyph glyph-name="t" unicode="t" horiz-adv-x="348" 
d="M152 -12l-22 1q-6 11 -16 41t-11 45q-5 99 -11 343h-70l3 57q23 16 55 29l81 128q39 -4 61 -21l-1 -95q63 -2 117 -12q0 -40 -25 -86h-93q-4 -210 -5 -315q40 -4 109 -23l-1 -52q-17 -11 -75.5 -25.5t-95.5 -14.5z" />
    <glyph glyph-name="u" unicode="u" 
d="M509 512q19 0 24 -1q0 -51 -17 -88q-6 -220 -10 -325q45 -4 79 -15l-2 -70q-61 -19 -105 -19t-60 2q-12 24 -20 48q-83 -56 -120 -56q-179 0 -179 181q0 49 8 241q-53 0 -97 14q0 25 7 72q59 16 202 16q19 0 24 -1q0 -49 -17 -91v-202q0 -64 13.5 -93.5t58 -29.5t91.5 31
l-6 284q-44 2 -83 14q0 25 7 72q59 16 202 16z" />
    <glyph glyph-name="v" unicode="v" horiz-adv-x="590" 
d="M304 150l37 149l53 128q-34 6 -84 26l9 55h249q23 -46 23 -87q-39 -6 -78 -8q-20 -67 -78.5 -207t-78.5 -206h-129l-159 412l-78 9q0 41 23 87h249l9 -55q-41 -19 -69 -26l48 -127l35 -150h19z" />
    <glyph glyph-name="w" unicode="w" horiz-adv-x="860" 
d="M367 508q13 1 50.5 1t67.5 -2l64 -206l31 -141h17l29 139l38 128q-34 6 -84 26l9 55h249q23 -46 23 -87q-39 -6 -78 -8q-23 -78 -70.5 -229.5t-57.5 -183.5h-136l-93 308h-4l-96 -308h-129l-129 412l-78 9q0 41 23 87h249l9 -55q-41 -19 -69 -26l33 -127l25 -140h16
l29 141z" />
    <glyph glyph-name="x" unicode="x" horiz-adv-x="548" 
d="M551 508q6 -11 6 -20.5t-2 -17.5t-6 -18t-5 -14q-43 -14 -92 -18l-108 -155l135 -170q36 0 80 -8q0 -43 -17 -87h-270l-8 52q37 20 79 32l-70 91l-123 -175h-154q-7 24 -7 57q57 27 112 38l113 154l-128 161l-94 13q0 41 17 85h270l6 -55q-37 -19 -69 -25l68 -88l124 168
h143z" />
    <glyph glyph-name="y" unicode="y" horiz-adv-x="590" 
d="M169 -242q-29 0 -64 10t-75 30q6 115 11 137q38 10 62.5 10t31.5 -1l32 -100l9 1q23 3 47 55t35 100h-42l-148 412l-78 9q0 41 23 87h249l9 -55q-41 -19 -69 -26l76 -237l9 -43h22l85 280q-34 6 -84 26l9 55h249q23 -46 23 -87q-39 -6 -78 -8q-90 -264 -140.5 -408
t-91.5 -195.5t-112 -51.5z" />
    <glyph glyph-name="z" unicode="z" horiz-adv-x="485" 
d="M442 183q16 -57 16 -99t-4 -84h-388q-20 29 -22 71l254 351h-103l-22 -99q-8 -1 -35.5 -1t-59.5 7q-14 72 -14 112t3 67h367q14 -28 14 -73l-243 -345h121l22 99q62 0 94 -6z" />
    <glyph glyph-name="braceleft" unicode="{" horiz-adv-x="405" 
d="M260 174l-4 -165v-37q102 -55 121 -70q-9 -27 -30 -68q-44 5 -194 54q-10 7 -22 33.5t-12 36.5l32 202q-29 30 -107 100l-6 5q-7 15 -7 41l6 34q17 14 59.5 53t54.5 52q-22 134 -32 202q0 9 12 35.5t22 34.5q150 49 194 54q20 -39 30 -69q-24 -18 -121 -69v-38l4 -165
q0 -66 -132 -122v-11q132 -56 132 -123z" />
    <glyph glyph-name="bar" unicode="|" horiz-adv-x="298" 
d="M228 -199q-24 -10 -55 -10t-61 8q-2 248 -6.5 542.5t-5.5 399.5q34 8 71 8t67 -6z" />
    <glyph glyph-name="braceright" unicode="}" horiz-adv-x="395" 
d="M146 430l4 165v38q-97 51 -121 69q10 30 30 69q44 -5 194 -54q10 -8 22 -34.5t12 -35.5q-10 -68 -32 -202q12 -13 54.5 -52t59.5 -53q6 -19 6 -32q0 -27 -7 -43l-6 -5q-78 -70 -107 -100l32 -202q0 -10 -12 -36.5t-22 -33.5q-150 -49 -194 -54q-21 41 -30 68
q19 15 121 70v37l-4 165q0 67 132 123v11q-132 56 -132 122z" />
    <glyph glyph-name="asciitilde" unicode="~" horiz-adv-x="565" 
d="M81 215q-21 27 -31 50q14 20 70 57t82 37l192 -66q18 9 109 38q18 -24 30 -50q-12 -20 -68.5 -57.5t-81.5 -37.5l-193 66q-65 -29 -109 -37z" />
    <glyph glyph-name="exclamdown" unicode="&#xa1;" horiz-adv-x="291" 
d="M228 -234q-35 -8 -69.5 -8t-63.5 3l24 533q33 5 56.5 5t38.5 -3zM100 359q-9 45 -9 68.5t4 52.5q40 9 67.5 9t66.5 -3q9 -45 9 -68.5t-4 -52.5q-40 -9 -67.5 -9t-66.5 3z" />
    <glyph glyph-name="cent" unicode="&#xa2;" horiz-adv-x="521" 
d="M344 -8l-1 -107q-21 -8 -42 -8t-48 7l-1 108q-202 29 -202 279t196 283l-1 117q27 9 55 9t52 -8q-2 -78 -2 -116q72 -10 128 -43q-3 -102 -23 -156q-31 -6 -60 -6l-37 1l-24 115q-6 1 -18 1q-60 0 -96 -42t-36 -139.5t27.5 -152t105.5 -54.5q11 0 52.5 13t90.5 36
q34 -42 37 -76q-78 -48 -153 -61z" />
    <glyph glyph-name="sterling" unicode="&#xa3;" horiz-adv-x="526" 
d="M389 178l32 2q24 0 57 -11q13 -70 13 -116.5t-1 -52.5h-408q-21 34 -21 79q5 11 41 47q68 68 68 102t-31 96l-70 3q-4 19 -8 69q16 8 40 11q-21 53 -21 99q0 92 47.5 149t140.5 57t183 -76q0 -72 -20 -132q-30 -7 -56 -7t-38 2l-22 120q-15 3 -43.5 3t-46.5 -32.5
t-18 -75t27 -98.5l184 -6q4 -25 4 -41l-5 -35q-80 -14 -135 -14q18 -39 18 -71q0 -79 -67 -159h142q5 56 14 88z" />
    <glyph glyph-name="currency" unicode="&#xa4;" horiz-adv-x="597" 
d="M192 533q47 29 117.5 29t117.5 -27q58 60 86 78q56 -32 74 -64q0 -11 -14 -37q-30 -15 -79 -49q22 -47 22 -110t-31 -117l5 -4q55 -38 84 -52q14 -25 14 -38q-15 -26 -74 -63q-36 22 -99 90q-44 -25 -103.5 -25t-102.5 20l-3 -2q-61 -63 -91 -84q-56 33 -75 64
q0 12 14 38q21 9 78 48q-33 52 -33 118t26 115q-52 36 -81 51q-14 24 -14 37q15 27 75 64q26 -16 87 -80zM310 234q75 0 75 116q0 61 -15.5 91.5t-53 30.5t-61.5 -10q-25 -49 -25 -105q0 -123 80 -123z" />
    <glyph glyph-name="yen" unicode="&#xa5;" horiz-adv-x="687" 
d="M537 325q2 -13 2 -36t-1 -34q-68 -12 -113 -12h-13v-28q120 -2 132 -2q2 -28 2 -39t-2 -33q-68 -12 -112 -12h-21v-33l69 -9q0 -41 -23 -87h-243l-9 55q69 27 83 29v46l-120 3q-4 28 -4 42.5t3 30.5q51 12 120 12l-1 26l-125 3q-3 19 -3 37.5t4 34.5q44 8 85 11l-149 282
l-88 27l8 61h260q18 -33 18 -79q-23 -4 -59 -9l116 -241l114 242q-34 7 -83 26l7 61h261q3 -9 6.5 -16t5.5 -14t3 -13q3 -18 3 -36q-39 -8 -78 -11l-142 -283z" />
    <glyph glyph-name="brokenbar" unicode="&#xa6;" horiz-adv-x="298" 
d="M238 747l-4 -365l-129 -1q-1 123 -5 364q34 8 71 8t67 -6zM112 -212q-2 226 -4 339l124 1q-2 -114 -4 -338q-24 -10 -55 -10t-61 8z" />
    <glyph glyph-name="section" unicode="&#xa7;" horiz-adv-x="510" 
d="M444 692l1 -31q0 -78 -12 -102q-33 -12 -92 -12l-32 101q-13 5 -36 5t-37.5 -14t-14.5 -33t15 -34.5t31 -24.5t46.5 -23.5t46 -22.5t40 -24t36.5 -31q33 -37 33 -79.5t-11 -76t-32 -59.5q-33 -41 -76 -73q56 -28 87.5 -60t31.5 -81q0 -77 -58.5 -119t-143.5 -42
q-45 0 -98.5 16t-90.5 43q0 72 14 132q50 6 99 6l12 -97q25 -9 60 -9t55.5 14t20.5 39.5t-23 42.5t-81.5 44t-111.5 77t-53 115q0 79 50 123q40 36 78 50q-105 58 -105 131t49.5 112.5t133.5 39.5t168 -43zM191 303q0 -42 22.5 -66.5t62.5 -43.5q35 24 54 50.5t19 65.5
q0 66 -78 107q-80 -47 -80 -113z" />
    <glyph glyph-name="dieresis" unicode="&#xa8;" horiz-adv-x="833" 
d="M325 683q8 -34 8 -54.5t-3 -47.5q-30 -8 -55.5 -8t-58.5 3q-8 34 -8 54.5t3 47.5q30 8 55.5 8t58.5 -3zM488 683q8 -34 8 -54.5t-3 -47.5q-30 -8 -55.5 -8t-58.5 3q-8 34 -8 54.5t3 47.5q30 8 55.5 8t58.5 -3z" />
    <glyph glyph-name="copyright" unicode="&#xa9;" horiz-adv-x="833" 
d="M50 195q-31 75 -31 173.5t31 173t86 118.5q108 89 273 89q163 0 273 -92q54 -45 85.5 -119t31.5 -171t-31 -172t-86 -119t-123.5 -66t-149.5 -22t-150 22t-123.5 66t-85.5 119zM214.5 581q-64.5 -76 -64.5 -209.5t66 -215.5t190.5 -82t193.5 83t69 216t-65 208.5
t-195 75.5t-194.5 -76zM468 517l-47 4q-25 0 -73 -13q-25 -46 -25 -128q0 -161 89 -161q36 0 60 10l13 78l29 1l47 -6q10 -76 10 -121q-15 -12 -63.5 -27t-93.5 -15q-93 0 -150 56t-57 172t53 175t157 59q40 0 78 -13t57 -26l18 -13v-12q0 -33 -10 -91q-27 -6 -46 -6l-28 1z
" />
    <glyph glyph-name="ordfeminine" unicode="&#xaa;" horiz-adv-x="374" 
d="M325 426l56 -11l-2 -44q-14 -8 -53 -17.5t-76 -9.5q-7 14 -13 32q-62 -36 -89 -36q-57 0 -91.5 30t-34.5 83q0 119 148 124l51 2l-1 19q-1 35 -10.5 45.5t-38.5 10.5l-16 -4l-17 -56l-29 -1l-48 6q-14 23 -14 83q14 7 67 18.5t69 11.5q82 0 113.5 -27t31.5 -104t-3 -155z
M162 419q9 0 65 34l-3 58l-46 -5q-50 -5 -50 -46t34 -41z" />
    <glyph glyph-name="guillemotleft" unicode="&#xab;" horiz-adv-x="479" 
d="M58 245q-3 6 -3 17.5t1 16.5l47 66q26 36 84 96q32 -8 80 -50q-82 -122 -89 -129q11 -13 18 -23l70 -106q-38 -45 -81 -49q-53 53 -82 95zM225 245q-3 6 -3 17.5t1 16.5l47 66q26 36 84 96q32 -8 80 -50q-82 -122 -89 -129q11 -13 18 -23l70 -106q-38 -45 -81 -49
q-53 53 -82 95z" />
    <glyph glyph-name="logicalnot" unicode="&#xac;" horiz-adv-x="518" 
d="M40 314q77 15 111 15t70.5 -1t80.5 -2q122 -3 183 -5v-219q-23 -4 -49 -4t-53 3l-12 120h-33l-297 6q-6 23 -6 42z" />
    <glyph glyph-name="uni00AD" unicode="&#xad;" horiz-adv-x="386" 
d="M339 299q4 -19 4 -41.5t-3 -46.5q-69 -7 -113 -7l-145 6q-5 18 -5 41.5t3 47.5q69 7 113 7z" />
    <glyph glyph-name="registered" unicode="&#xae;" horiz-adv-x="530" 
d="M364 569q126 0 126 -74q0 -49 -48 -72l59 -59l35 -4q0 -25 -14 -50h-78l-83 81v-28l26 -12q-1 -22 -11 -41h-122l-9 31q20 13 34 16v162l-31 13l3 37h113zM363 470h11q27 0 27 23q0 16 -27 16h-11v-39zM217.5 609q-67.5 -54 -67.5 -162.5t68.5 -167t166 -58.5t165.5 58.5
t68 165.5t-68 162.5t-166.5 55.5t-166 -54zM83.5 309q-27.5 62 -27.5 132.5t18 121.5t49 85.5t73 57.5q80 45 178 45t170.5 -31.5t120 -101.5t47.5 -158.5t-27 -150.5t-73.5 -99.5t-104.5 -57t-123 -19.5t-122.5 19.5t-104 57t-74 99.5z" />
    <glyph glyph-name="macron" unicode="&#xaf;" horiz-adv-x="297" 
d="M45 697q69 7 121.5 7t126.5 -7q2 -9 2 -39l-3 -48q-69 -6 -113 -6l-133 5q-5 23 -5 40z" />
    <glyph glyph-name="degree" unicode="&#xb0;" horiz-adv-x="442" 
d="M130 715q35 31 94.5 31t93.5 -31.5t34 -94t-34 -98t-93 -35.5q-130 0 -130 138q0 59 35 90zM224 556q31 0 31 58t-31 58q-36 0 -36 -58t36 -58z" />
    <glyph glyph-name="plusminus" unicode="&#xb1;" horiz-adv-x="566" 
d="M184 412l45 -1l5 198q32 7 49 7l51 -6q14 -73 14 -116t-1 -85l183 -4q5 -25 5 -44l-4 -41q-78 -15 -133 -15h-53l-2 -203q-31 -8 -52 -8l-50 5q-14 74 -14 118.5t1 89.5l-177 5q-6 30 -6 42l5 43q78 15 134 15zM50 13q78 14 124 14t194.5 -3.5t164.5 -4.5q3 -10 3 -42
l-5 -42q-78 -15 -133 -15l-347 7q-6 30 -6 42z" />
    <glyph glyph-name="twosuperior" unicode="&#xb2;" horiz-adv-x="347" 
d="M348 293l-1 -30h-306q-15 27 -15 47.5t1 27.5q126 141 157 186.5t31 82.5q0 55 -51 55h-14l-16 -84q-10 -2 -33 -2l-44 6q-15 44 -15 111q56 56 140.5 56t123 -35t38.5 -89.5t-27.5 -99t-142.5 -176.5l79 1q2 32 11 62l26 1q16 0 48 -9q10 -59 10 -111z" />
    <glyph glyph-name="threesuperior" unicode="&#xb3;" horiz-adv-x="346" 
d="M35 682l1 10q17 21 55.5 39t67.5 18q74 0 122 -34.5t48 -82.5q0 -63 -55 -101q74 -28 74 -108q0 -51 -34 -90.5t-78.5 -57.5t-95 -18t-115.5 24q2 48 18 79q66 -14 84 -14t28.5 1.5t29 7t30.5 20t12 38.5t-19.5 38t-52.5 14h-12l-40 -4q-10 20 -10 37t3 44l48 6
q27 3 46.5 19.5t19.5 40.5q0 55 -57 55l-9 -1l-17 -86l-27 -1l-50 7q-15 47 -15 100z" />
    <glyph glyph-name="acute" unicode="&#xb4;" horiz-adv-x="280" 
d="M64 616l158 131q59 -47 63 -87q-26 -25 -65.5 -52t-93.5 -55q-32 24 -62 63z" />
    <glyph glyph-name="mu" unicode="&#xb5;" horiz-adv-x="600" 
d="M232 422l-1 -204q0 -64 13.5 -93.5t58 -29.5t91.5 31q0 92 -6 284q-58 6 -83 14l7 72q16 4 83 10t101 6t42 -1q0 -49 -17 -88q-4 -105 -10 -325q45 -4 79 -15l-2 -70q-58 -19 -124 -19q-17 0 -41 2q-12 24 -20 48q-83 -56 -115 -56t-63 7l-3 -187q-19 -29 -43 -38h-147
l-6 54q41 20 81 32q-9 551 -9 554q-45 4 -83 14q0 37 7 72q21 5 83.5 10.5t98 5.5t44.5 -1q0 -43 -16 -89z" />
    <glyph glyph-name="mu" unicode="&#x3bc;" horiz-adv-x="600" 
d="M232 422l-1 -204q0 -64 13.5 -93.5t58 -29.5t91.5 31q0 92 -6 284q-58 6 -83 14l7 72q16 4 83 10t101 6t42 -1q0 -49 -17 -88q-4 -105 -10 -325q45 -4 79 -15l-2 -70q-58 -19 -124 -19q-17 0 -41 2q-12 24 -20 48q-83 -56 -115 -56t-63 7l-3 -187q-19 -29 -43 -38h-147
l-6 54q41 20 81 32q-9 551 -9 554q-45 4 -83 14q0 37 7 72q21 5 83.5 10.5t98 5.5t44.5 -1q0 -43 -16 -89z" />
    <glyph glyph-name="paragraph" unicode="&#xb6;" horiz-adv-x="657" 
d="M65 489q0 116 68 169.5t180 53.5q62 0 95 -3q-5 -54 -14 -85l-7 -729h-198l-5 61q44 16 85 25q-1 97 -5 286q-102 7 -150.5 68t-48.5 154zM430 709q25 3 90 3t135 -19q5 -38 5 -73q-37 -11 -82 -15q-1 -69 -3 -197q-4 -280 -6 -427l85 -25l-5 -61h-198l-7 729
q-8 29 -14 85z" />
    <glyph glyph-name="periodcentered" unicode="&#xb7;" horiz-adv-x="208" 
d="M188 351q9 -36 9 -61.5t-3 -57.5q-35 -9 -65.5 -9t-67.5 3q-10 40 -10 58.5t4 60.5q33 9 63.5 9t69.5 -3z" />
    <glyph glyph-name="cedilla" unicode="&#xb8;" horiz-adv-x="330" 
d="M229 -101q0 6 -58 29q0 38 36 120q17 3 28 3t38 -9q-3 -49 -10 -68q71 -38 71 -68t-35 -66.5t-80 -52.5l-26 31q2 5 12 24q24 44 24 57z" />
    <glyph glyph-name="onesuperior" unicode="&#xb9;" horiz-adv-x="343" 
d="M242 705l-5 -347l56 -10q0 -44 -18 -85h-231l-17 57q27 11 55.5 20t39.5 13q-2 182 -4 275q-52 -16 -79 -16q-19 38 -19 83l165 53q12 -2 33 -17t24 -26z" />
    <glyph glyph-name="ordmasculine" unicode="&#xba;" horiz-adv-x="431" 
d="M169.5 428q14.5 -32 55 -32t54.5 31t14 88.5t-14 90t-53 32.5q-27 0 -49 -9q-22 -45 -22 -107t14.5 -94zM92.5 660q43.5 52 134.5 52t131.5 -47.5t40.5 -141t-43 -147t-130 -53.5q-177 0 -177 191q0 94 43.5 146z" />
    <glyph glyph-name="guillemotright" unicode="&#xbb;" horiz-adv-x="479" 
d="M448 279q1 -5 1 -16.5t-3 -17.5l-45 -66q-24 -35 -82 -95q-19 2 -39.5 14t-41.5 35q49 80 88 129q-8 8 -89 129q43 41 80 50q55 -55 84 -96zM281 279q1 -5 1 -16.5t-3 -17.5l-45 -66q-24 -35 -82 -95q-19 2 -39.5 14t-41.5 35q49 80 88 129q-8 8 -89 129q43 41 80 50
q55 -55 84 -96z" />
    <glyph glyph-name="onequarter" unicode="&#xbc;" horiz-adv-x="857" 
d="M746 -3l-43 -3q-26 0 -53 7l-6 106h-192q-13 31 -13 71l182 298h138q0 -2 -6 -281l70 -1q0 -58 -13 -87h-59zM642 196l-1 123l-76 -124q46 0 77 1zM242 705l-5 -347l56 -10q0 -44 -18 -85h-231l-17 57q27 11 55.5 20t39.5 13q-2 182 -4 275q-52 -16 -79 -16
q-19 38 -19 83l165 53q12 -2 33 -17t24 -26zM724 677l-505 -696q-38 18 -71 49l479 710q60 -25 97 -63z" />
    <glyph glyph-name="onehalf" unicode="&#xbd;" horiz-adv-x="847" 
d="M242 705l-5 -347l56 -10q0 -44 -18 -85h-231l-17 57q27 11 55.5 20t39.5 13q-2 182 -4 275q-52 -16 -79 -16q-19 38 -19 83l165 53q12 -2 33 -17t24 -26zM895 30l-1 -30h-306q-15 28 -15 48t1 27q126 141 157 186.5t31 82.5q0 55 -51 55h-14l-16 -84q-10 -2 -33 -2l-44 6
q-15 44 -15 111q56 56 140.5 56t123 -35t38.5 -89.5t-27.5 -99t-142.5 -176.5l79 1q2 32 11 62l26 1q23 0 48 -9q10 -59 10 -111zM724 677l-505 -696q-38 18 -71 49l479 710q60 -25 97 -63z" />
    <glyph glyph-name="threequarters" unicode="&#xbe;" horiz-adv-x="837" 
d="M746 -3l-43 -3q-26 0 -53 7l-6 106h-192q-13 31 -13 71l182 298h138q0 -2 -6 -281l70 -1q0 -58 -13 -87h-59zM642 196l-1 123l-76 -124q46 0 77 1zM35 682l1 10q17 21 55.5 39t67.5 18q74 0 122 -34.5t48 -82.5q0 -63 -55 -101q74 -28 74 -108q0 -51 -34 -90.5
t-78.5 -57.5t-95 -18t-115.5 24q2 48 18 79q66 -14 84 -14t28.5 1.5t29 7t30.5 20t12 38.5t-19.5 38t-52.5 14h-12l-40 -4q-10 20 -10 37t3 44l48 6q27 3 46.5 19.5t19.5 40.5q0 55 -57 55l-9 -1l-17 -86l-27 -1l-50 7q-15 47 -15 100zM724 677l-505 -696q-38 18 -71 49
l479 710q60 -25 97 -63z" />
    <glyph glyph-name="questiondown" unicode="&#xbf;" horiz-adv-x="487" 
d="M196 -18q-11 -30 -11 -61.5t20 -53t55 -21.5q18 0 38 6l23 105l92 -4q18 -51 22 -127q-88 -68 -191 -68q-184 0 -184 177q0 32 13.5 67t27.5 56.5t41 59.5q58 82 69 130q3 14 3 80q36 7 80 7q18 -42 28 -96q-10 -63 -72 -157q-20 -31 -31.5 -50.5t-22.5 -49.5zM186 502
q32 8 64 8t59 -4q8 -34 8 -70t-3 -54q-32 -6 -65 -6t-58 3q-8 32 -8 65.5t3 57.5z" />
    <glyph glyph-name="Agrave" unicode="&#xc0;" horiz-adv-x="739" 
d="M519 689l1 -10q0 -41 -13 -70q-13 -10 -41 -16l167 -494l95 -12q0 -41 -23 -87h-243l-9 55q42 16 55 21l-40 113h-225q-30 -89 -32 -93l69 -9q0 -21 -8 -48.5t-15 -38.5h-243l-9 55q45 19 81 28l168 514q-67 10 -101 26q0 29 9 51q21 7 98.5 16.5t148 9.5t110.5 -11z
M390 414l-29 132h-10l-32 -138l-47 -125h167zM280 939l158 -131q-28 -36 -62 -63q-101 50 -159 107q2 18 17.5 39.5t45.5 47.5z" />
    <glyph glyph-name="Aacute" unicode="&#xc1;" horiz-adv-x="739" 
d="M519 689l1 -10q0 -41 -13 -70q-13 -10 -41 -16l167 -494l95 -12q0 -41 -23 -87h-243l-9 55q42 16 55 21l-40 113h-225q-30 -89 -32 -93l69 -9q0 -21 -8 -48.5t-15 -38.5h-243l-9 55q45 19 81 28l168 514q-67 10 -101 26q0 29 9 51q21 7 98.5 16.5t148 9.5t110.5 -11z
M390 414l-29 132h-10l-32 -138l-47 -125h167zM291 808l158 131q59 -47 63 -87q-26 -25 -65.5 -52t-93.5 -55q-32 24 -62 63z" />
    <glyph glyph-name="Acircumflex" unicode="&#xc2;" horiz-adv-x="739" 
d="M519 689l1 -10q0 -41 -13 -70q-13 -10 -41 -16l167 -494l95 -12q0 -41 -23 -87h-243l-9 55q42 16 55 21l-40 113h-225q-30 -89 -32 -93l69 -9q0 -21 -8 -48.5t-15 -38.5h-243l-9 55q45 19 81 28l168 514q-67 10 -101 26q0 29 9 51q21 7 98.5 16.5t148 9.5t110.5 -11z
M390 414l-29 132h-10l-32 -138l-47 -125h167zM473 747q-73 37 -105 61q-18 -14 -105 -61q-38 36 -53 60l158 131l159 -131q-14 -22 -54 -60z" />
    <glyph glyph-name="Atilde" unicode="&#xc3;" horiz-adv-x="739" 
d="M519 689l1 -10q0 -41 -13 -70q-13 -10 -41 -16l167 -494l95 -12q0 -41 -23 -87h-243l-9 55q42 16 55 21l-40 113h-225q-30 -89 -32 -93l69 -9q0 -21 -8 -48.5t-15 -38.5h-243l-9 55q45 19 81 28l168 514q-67 10 -101 26q0 29 9 51q21 7 98.5 16.5t148 9.5t110.5 -11z
M390 414l-29 132h-10l-32 -138l-47 -125h167zM204 757q-19 25 -32 53q18 25 91 80q19 14 37 14t63 -20t62 -24q88 42 89 43q24 -34 33 -53q-28 -41 -93 -83q-20 -14 -35 -14q-23 7 -62 23.5t-59 21.5q-15 -9 -47 -21.5t-47 -19.5z" />
    <glyph glyph-name="Adieresis" unicode="&#xc4;" horiz-adv-x="739" 
d="M519 689l1 -10q0 -41 -13 -70q-13 -10 -41 -16l167 -494l95 -12q0 -41 -23 -87h-243l-9 55q42 16 55 21l-40 113h-225q-30 -89 -32 -93l69 -9q0 -21 -8 -48.5t-15 -38.5h-243l-9 55q45 19 81 28l168 514q-67 10 -101 26q0 29 9 51q21 7 98.5 16.5t148 9.5t110.5 -11z
M390 414l-29 132h-10l-32 -138l-47 -125h167zM337 875q8 -34 8 -54.5t-3 -47.5q-30 -8 -55.5 -8t-58.5 3q-8 34 -8 54.5t3 47.5q30 8 55.5 8t58.5 -3zM500 875q8 -34 8 -54.5t-3 -47.5q-30 -8 -55.5 -8t-58.5 3q-8 34 -8 54.5t3 47.5q30 8 55.5 8t58.5 -3z" />
    <glyph glyph-name="Aring" unicode="&#xc5;" horiz-adv-x="739" 
d="M519 689l1 -10q0 -41 -13 -70q-13 -10 -41 -16l167 -494l95 -12q0 -41 -23 -87h-243l-9 55q42 16 55 21l-40 113h-225q-30 -89 -32 -93l69 -9q0 -21 -8 -48.5t-15 -38.5h-243l-9 55q45 19 81 28l168 514q-67 10 -101 26q0 29 9 51q21 7 98.5 16.5t148 9.5t110.5 -11z
M390 414l-29 132h-10l-32 -138l-47 -125h167zM331 898.5q-11 -12.5 -11 -34t11 -33.5t29.5 -12t29.5 12t11 33.5t-11 34t-29.5 12.5t-29.5 -12.5zM452.5 950q38.5 -32 38.5 -86.5t-38 -84t-92 -29.5t-93 30t-39 84t39.5 86t92.5 32t91.5 -32z" />
    <glyph glyph-name="AE" unicode="&#xc6;" horiz-adv-x="959" 
d="M459 84q0 65 -2 105h-184l-51 -94l67 -9q0 -40 -23 -86h-253l-8 56q40 19 87 28l276 530l-72 22l8 64h562q4 -28 4 -54q0 -49 -15 -128q-31 -7 -59 -7l-35 1l-23 89h-149q-2 -67 -4 -197h102l10 69q51 0 99 -25v-204h-66q-24 37 -29 64h-117l-3 -212h171l23 88l35 1
l59 -7q15 -65 15 -107.5t-4 -70.5h-496l3 56q33 21 72 28zM455 283q0 46 -2 131.5t-2 112.5l-64 -124l-66 -120h134z" />
    <glyph glyph-name="Ccedilla" unicode="&#xc7;" horiz-adv-x="591" 
d="M477 474l-31 1l-29 120q-58 10 -87 10q-57 0 -128 -23q-21 -39 -33 -100t-12 -115q0 -276 159 -276q68 0 108 20l21 122q63 0 96 -7q16 -109 16 -177q-21 -16 -85 -36.5t-130 -24.5l-3 -14q71 -38 71 -68t-35 -66.5t-80 -52.5l-26 31q2 5 12 24q24 44 24 57q0 6 -58 29
q0 24 13 63q-240 33 -240 364q0 175 72.5 266t231.5 91q79 0 140 -23q54 -20 92 -44q0 -68 -15 -164q-28 -7 -64 -7z" />
    <glyph glyph-name="Egrave" unicode="&#xc8;" 
d="M249 600q0 -114 -2 -196h102l10 69q51 0 99 -25v-200l-66 -3q-24 36 -28 63h-118q-2 -140 -2 -211h171l22 87q62 0 94 -6q15 -57 15 -103.5t-3 -74.5h-496l-9 55q65 25 84 29q-1 59 -2 166q-4 240 -7 363l-83 26l8 61h491q3 -27 3 -67.5t-15 -112.5q-31 -10 -94 -10
l-23 90h-151zM218 939l158 -131q-28 -36 -62 -63q-101 50 -159 107q2 18 17.5 39.5t45.5 47.5z" />
    <glyph glyph-name="Eacute" unicode="&#xc9;" 
d="M249 600q0 -114 -2 -196h102l10 69q51 0 99 -25v-200l-66 -3q-24 36 -28 63h-118q-2 -140 -2 -211h171l22 87q62 0 94 -6q15 -57 15 -103.5t-3 -74.5h-496l-9 55q65 25 84 29q-1 59 -2 166q-4 240 -7 363l-83 26l8 61h491q3 -27 3 -67.5t-15 -112.5q-31 -10 -94 -10
l-23 90h-151zM203 808l158 131q59 -47 63 -87q-26 -25 -65.5 -52t-93.5 -55q-32 24 -62 63z" />
    <glyph glyph-name="Ecircumflex" unicode="&#xca;" 
d="M249 600q0 -114 -2 -196h102l10 69q51 0 99 -25v-200l-66 -3q-24 36 -28 63h-118q-2 -140 -2 -211h171l22 87q62 0 94 -6q15 -57 15 -103.5t-3 -74.5h-496l-9 55q65 25 84 29q-1 59 -2 166q-4 240 -7 363l-83 26l8 61h491q3 -27 3 -67.5t-15 -112.5q-31 -10 -94 -10
l-23 90h-151zM420 747q-73 37 -105 61q-18 -14 -105 -61q-38 36 -53 60l158 131l159 -131q-14 -22 -54 -60z" />
    <glyph glyph-name="Edieresis" unicode="&#xcb;" 
d="M249 600q0 -114 -2 -196h102l10 69q51 0 99 -25v-200l-66 -3q-24 36 -28 63h-118q-2 -140 -2 -211h171l22 87q62 0 94 -6q15 -57 15 -103.5t-3 -74.5h-496l-9 55q65 25 84 29q-1 59 -2 166q-4 240 -7 363l-83 26l8 61h491q3 -27 3 -67.5t-15 -112.5q-31 -10 -94 -10
l-23 90h-151zM301 875q8 -34 8 -54.5t-3 -47.5q-30 -8 -55.5 -8t-58.5 3q-8 34 -8 54.5t3 47.5q30 8 55.5 8t58.5 -3zM464 875q8 -34 8 -54.5t-3 -47.5q-30 -8 -55.5 -8t-58.5 3q-8 34 -8 54.5t3 47.5q30 8 55.5 8t58.5 -3z" />
    <glyph glyph-name="Igrave" unicode="&#xcc;" horiz-adv-x="380" 
d="M323 700q-1 0 0.5 -2t4 -8.5t5.5 -15.5q6 -16 8 -53q-51 -8 -67 -10l-5 -515l69 -9q0 -41 -23 -87h-243l-9 55q56 23 84 29q-1 59 -3 166q-3 240 -6 363l-83 26l8 61h260zM113 939l158 -131q-28 -36 -62 -63q-101 50 -159 107q2 18 17.5 39.5t45.5 47.5z" />
    <glyph glyph-name="Iacute" unicode="&#xcd;" horiz-adv-x="380" 
d="M323 700q-1 0 0.5 -2t4 -8.5t5.5 -15.5q6 -16 8 -53q-51 -8 -67 -10l-5 -515l69 -9q0 -41 -23 -87h-243l-9 55q56 23 84 29q-1 59 -3 166q-3 240 -6 363l-83 26l8 61h260zM156 808l158 131q59 -47 63 -87q-26 -25 -65.5 -52t-93.5 -55q-32 24 -62 63z" />
    <glyph glyph-name="Icircumflex" unicode="&#xce;" horiz-adv-x="380" 
d="M323 700q-1 0 0.5 -2t4 -8.5t5.5 -15.5q6 -16 8 -53q-51 -8 -67 -10l-5 -515l69 -9q0 -41 -23 -87h-243l-9 55q56 23 84 29q-1 59 -3 166q-3 240 -6 363l-83 26l8 61h260zM312 747q-73 37 -105 61q-18 -14 -105 -61q-38 36 -53 60l158 131l159 -131q-14 -22 -54 -60z" />
    <glyph glyph-name="Idieresis" unicode="&#xcf;" horiz-adv-x="380" 
d="M323 700q-1 0 0.5 -2t4 -8.5t5.5 -15.5q6 -16 8 -53q-51 -8 -67 -10l-5 -515l69 -9q0 -41 -23 -87h-243l-9 55q56 23 84 29q-1 59 -3 166q-3 240 -6 363l-83 26l8 61h260zM203 875q8 -34 8 -54.5t-3 -47.5q-30 -8 -55.5 -8t-58.5 3q-8 34 -8 54.5t3 47.5q30 8 55.5 8
t58.5 -3zM366 875q8 -34 8 -54.5t-3 -47.5q-30 -8 -55.5 -8t-58.5 3q-8 34 -8 54.5t3 47.5q30 8 55.5 8t58.5 -3z" />
    <glyph glyph-name="Eth" unicode="&#xd0;" horiz-adv-x="666" 
d="M635 365q0 -220 -105 -306q-43 -34 -93 -46.5t-131 -12.5h-259l-9 55q76 28 84 29q-2 150 -4 225l-79 3q-3 16 -5.5 42t-3.5 35q47 13 87 14q-2 70 -4 210q-44 11 -83 26q6 52 8 61h265q98 0 156.5 -20t103.5 -71q72 -84 72 -244zM245 306l-1 -209h71q114 0 151.5 55
t37.5 190t-42 196.5t-140 61.5h-73l-3 -197l118 -4q7 -18 7 -39.5t-5 -46.5q-68 -7 -112 -7h-9z" />
    <glyph glyph-name="Ntilde" unicode="&#xd1;" horiz-adv-x="785" 
d="M710 611l-3 -611h-128l-330 538q-4 -293 -5 -442l69 -9q0 -41 -23 -87h-243l-9 55q56 23 84 29q0 3 -9 529l-83 26l8 61h260l291 -522l-15 435l-83 26l8 61h260q-1 0 0.5 -2t4 -8.5t5.5 -15.5q6 -16 8 -53q-51 -8 -67 -10zM251 757q-19 25 -32 53q18 25 91 80
q19 14 37 14t63 -20t62 -24q88 42 89 43q24 -34 33 -53q-28 -41 -93 -83q-20 -14 -35 -14q-23 7 -62 23.5t-59 21.5q-15 -9 -47 -21.5t-47 -19.5z" />
    <glyph glyph-name="Ograve" unicode="&#xd2;" horiz-adv-x="647" 
d="M330 94q166 0 166 255t-166 255q-72 0 -126 -22q-46 -96 -46 -222.5t38 -196t134 -69.5zM330 712q167 0 235 -87.5t68 -267.5q0 -113 -29 -193t-98 -128t-176 -48q-163 0 -236.5 91t-73.5 265q0 368 310 368zM255 939l158 -131q-28 -36 -62 -63q-101 50 -159 107
q2 18 17.5 39.5t45.5 47.5z" />
    <glyph glyph-name="Oacute" unicode="&#xd3;" horiz-adv-x="647" 
d="M330 94q166 0 166 255t-166 255q-72 0 -126 -22q-46 -96 -46 -222.5t38 -196t134 -69.5zM330 712q167 0 235 -87.5t68 -267.5q0 -113 -29 -193t-98 -128t-176 -48q-163 0 -236.5 91t-73.5 265q0 368 310 368zM262 808l158 131q59 -47 63 -87q-26 -25 -65.5 -52t-93.5 -55
q-32 24 -62 63z" />
    <glyph glyph-name="Ocircumflex" unicode="&#xd4;" horiz-adv-x="647" 
d="M330 94q166 0 166 255t-166 255q-72 0 -126 -22q-46 -96 -46 -222.5t38 -196t134 -69.5zM330 712q167 0 235 -87.5t68 -267.5q0 -113 -29 -193t-98 -128t-176 -48q-163 0 -236.5 91t-73.5 265q0 368 310 368zM430 747q-73 37 -105 61q-18 -14 -105 -61q-38 36 -53 60
l158 131l159 -131q-14 -22 -54 -60z" />
    <glyph glyph-name="Otilde" unicode="&#xd5;" horiz-adv-x="647" 
d="M330 94q166 0 166 255t-166 255q-72 0 -126 -22q-46 -96 -46 -222.5t38 -196t134 -69.5zM330 712q167 0 235 -87.5t68 -267.5q0 -113 -29 -193t-98 -128t-176 -48q-163 0 -236.5 91t-73.5 265q0 368 310 368zM190 757q-19 25 -32 53q18 25 91 80q19 14 37 14t63 -20
t62 -24q88 42 89 43q24 -34 33 -53q-28 -41 -93 -83q-20 -14 -35 -14q-23 7 -62 23.5t-59 21.5q-15 -9 -47 -21.5t-47 -19.5z" />
    <glyph glyph-name="Odieresis" unicode="&#xd6;" horiz-adv-x="647" 
d="M330 94q166 0 166 255t-166 255q-72 0 -126 -22q-46 -96 -46 -222.5t38 -196t134 -69.5zM330 712q167 0 235 -87.5t68 -267.5q0 -113 -29 -193t-98 -128t-176 -48q-163 0 -236.5 91t-73.5 265q0 368 310 368zM300 875q8 -34 8 -54.5t-3 -47.5q-30 -8 -55.5 -8t-58.5 3
q-8 34 -8 54.5t3 47.5q30 8 55.5 8t58.5 -3zM463 875q8 -34 8 -54.5t-3 -47.5q-30 -8 -55.5 -8t-58.5 3q-8 34 -8 54.5t3 47.5q30 8 55.5 8t58.5 -3z" />
    <glyph glyph-name="multiply" unicode="&#xd7;" horiz-adv-x="526" 
d="M416 475q42 -26 72 -64q-39 -59 -81 -101l-53 -52l137 -147q-22 -32 -66 -66q-78 56 -151 134l-142 -138q-38 26 -68 66q38 59 81 101q4 3 10 9.5t18 18t24 23.5l-137 147q18 30 66 66q82 -61 151 -134z" />
    <glyph glyph-name="Oslash" unicode="&#xd8;" horiz-adv-x="647" 
d="M330 712q42 0 77 -6l33 93q31 -3 83 -30l-32 -87q76 -36 109 -116.5t33 -201t-29 -200.5t-98 -128t-176 -48q-50 0 -92 9l-35 -96q-28 3 -40.5 8t-30.5 19l33 94q-145 75 -145 322q0 368 310 368zM330 90q170 0 170 256q0 146 -55 212l-170 -461q22 -7 55 -7zM200 582
q-46 -96 -46 -236.5t53 -204.5l164 462q-22 5 -41 5q-75 0 -130 -26z" />
    <glyph glyph-name="Ugrave" unicode="&#xd9;" horiz-adv-x="754" 
d="M574 363l-4 250l-83 26l8 61h260q-1 0 0.5 -2t4 -8.5t5.5 -15.5q6 -16 8 -53q-51 -8 -67 -10l-2 -254q-2 -191 -69.5 -280t-230.5 -89t-227 83t-66 268.5t-4 273.5l-83 26l8 61h260q-1 0 0.5 -2t4 -8.5t5.5 -15.5q6 -16 8 -53q-51 -8 -67 -10l-3 -254q0 -111 12 -157.5
t30 -65.5q39 -40 124 -40q82 0 124 46q34 37 41 130q3 37 3 93zM435 939l158 -131q-28 -36 -62 -63q-101 50 -159 107q2 18 17.5 39.5t45.5 47.5z" />
    <glyph glyph-name="Uacute" unicode="&#xda;" horiz-adv-x="754" 
d="M574 363l-4 250l-83 26l8 61h260q-1 0 0.5 -2t4 -8.5t5.5 -15.5q6 -16 8 -53q-51 -8 -67 -10l-2 -254q-2 -191 -69.5 -280t-230.5 -89t-227 83t-66 268.5t-4 273.5l-83 26l8 61h260q-1 0 0.5 -2t4 -8.5t5.5 -15.5q6 -16 8 -53q-51 -8 -67 -10l-3 -254q0 -111 12 -157.5
t30 -65.5q39 -40 124 -40q82 0 124 46q34 37 41 130q3 37 3 93zM330 808l158 131q59 -47 63 -87q-26 -25 -65.5 -52t-93.5 -55q-32 24 -62 63z" />
    <glyph glyph-name="Ucircumflex" unicode="&#xdb;" horiz-adv-x="754" 
d="M574 363l-4 250l-83 26l8 61h260q-1 0 0.5 -2t4 -8.5t5.5 -15.5q6 -16 8 -53q-51 -8 -67 -10l-2 -254q-2 -191 -69.5 -280t-230.5 -89t-227 83t-66 268.5t-4 273.5l-83 26l8 61h260q-1 0 0.5 -2t4 -8.5t5.5 -15.5q6 -16 8 -53q-51 -8 -67 -10l-3 -254q0 -111 12 -157.5
t30 -65.5q39 -40 124 -40q82 0 124 46q34 37 41 130q3 37 3 93zM494 747q-73 37 -105 61q-18 -14 -105 -61q-38 36 -53 60l158 131l159 -131q-14 -22 -54 -60z" />
    <glyph glyph-name="Udieresis" unicode="&#xdc;" horiz-adv-x="754" 
d="M574 363l-4 250l-83 26l8 61h260q-1 0 0.5 -2t4 -8.5t5.5 -15.5q6 -16 8 -53q-51 -8 -67 -10l-2 -254q-2 -191 -69.5 -280t-230.5 -89t-227 83t-66 268.5t-4 273.5l-83 26l8 61h260q-1 0 0.5 -2t4 -8.5t5.5 -15.5q6 -16 8 -53q-51 -8 -67 -10l-3 -254q0 -111 12 -157.5
t30 -65.5q39 -40 124 -40q82 0 124 46q34 37 41 130q3 37 3 93zM367 875q8 -34 8 -54.5t-3 -47.5q-30 -8 -55.5 -8t-58.5 3q-8 34 -8 54.5t3 47.5q30 8 55.5 8t58.5 -3zM530 875q8 -34 8 -54.5t-3 -47.5q-30 -8 -55.5 -8t-58.5 3q-8 34 -8 54.5t3 47.5q30 8 55.5 8t58.5 -3z
" />
    <glyph glyph-name="Yacute" unicode="&#xdd;" horiz-adv-x="678" 
d="M408 262l-1 -166l69 -9q0 -41 -23 -87h-243l-9 55q69 27 84 29q0 59 -2 177l-189 351l-88 27l8 61h260q18 -33 18 -79q-23 -4 -59 -9l107 -241h9l114 242q-34 7 -83 26l7 61h261q17 -25 18 -79q-39 -8 -78 -11zM281 808l158 131q59 -47 63 -87q-26 -25 -65.5 -52
t-93.5 -55q-32 24 -62 63z" />
    <glyph glyph-name="Thorn" unicode="&#xde;" horiz-adv-x="579" 
d="M233 173l-2 -77l78 -9q0 -39 -23 -87h-249l-9 55q56 21 90 30l-19 515q-46 5 -79 15q0 32 8 72q64 16 194 16q23 0 31 -1q0 -50 -13 -91l-3 -75q72 32 95 32q109 0 165 -48t56 -171q0 -92 -55.5 -151.5t-169.5 -59.5q-34 0 -95 35zM276.5 251q27.5 -15 46 -15t32 2.5
t31.5 11.5q39 19 39 94q0 79 -27 102q-20 18 -51 18q-55 0 -107 -26q-5 -132 -5 -158q14 -14 41.5 -29z" />
    <glyph glyph-name="germandbls" unicode="&#xdf;" horiz-adv-x="652" 
d="M345 749q87 0 158 -46t71 -108q0 -33 -14.5 -61t-29.5 -41.5t-35 -28t-27 -20.5t-14.5 -19t-7.5 -28t12 -29.5t24 -22t41.5 -23t45 -25t39.5 -29.5q45 -38 45 -103q0 -177 -209 -177q-60 0 -118 22q0 86 18 144l88 7l12 -91q29 0 53 22t24 54.5t-18.5 48t-50 31.5
t-43.5 22.5t-34 22t-32 29.5q-27 40 -27 78t12 63t26 39t34 28.5t28 22.5q25 23 25 54t-34 45t-68 14q-100 0 -103 -150q-6 -395 -6 -397l79 -6q0 -45 -23 -91h-253l-8 55q47 22 88 29q0 2 -6 334h-71l-2 57q28 15 74 27q8 110 68 178.5t169 68.5z" />
    <glyph glyph-name="agrave" unicode="&#xe0;" horiz-adv-x="539" 
d="M219 -12q-85 0 -131.5 35t-46.5 118q0 79 55 129q32 29 89 34t157 5v16q0 61 -19.5 89.5t-68.5 28.5q-25 0 -45 -10l-24 -87l-74 2q-25 38 -27 121q20 10 94 30.5t95 20.5q108 0 157 -44.5t49 -141t-9 -254.5q57 -5 88 -17q1 -12 1 -29l-1 -22q-72 -24 -145 -24
q-19 0 -28 1q-15 30 -18 72h-5q-19 -18 -66.5 -45.5t-76.5 -27.5zM189.5 86.5q20.5 -15.5 46.5 -15.5t62 23.5t58 42.5l-5 92q-79 -4 -119 -15q-63 -13 -63 -79q0 -33 20.5 -48.5zM213 747l158 -131q-28 -36 -62 -63q-101 50 -159 107q2 18 17.5 39.5t45.5 47.5z" />
    <glyph glyph-name="aacute" unicode="&#xe1;" horiz-adv-x="539" 
d="M219 -12q-85 0 -131.5 35t-46.5 118q0 79 55 129q32 29 89 34t157 5v16q0 61 -19.5 89.5t-68.5 28.5q-25 0 -45 -10l-24 -87l-74 2q-25 38 -27 121q20 10 94 30.5t95 20.5q108 0 157 -44.5t49 -141t-9 -254.5q57 -5 88 -17q1 -12 1 -29l-1 -22q-72 -24 -145 -24
q-19 0 -28 1q-15 30 -18 72h-5q-19 -18 -66.5 -45.5t-76.5 -27.5zM189.5 86.5q20.5 -15.5 46.5 -15.5t62 23.5t58 42.5l-5 92q-79 -4 -119 -15q-63 -13 -63 -79q0 -33 20.5 -48.5zM205 616l158 131q59 -47 63 -87q-26 -25 -65.5 -52t-93.5 -55q-32 24 -62 63z" />
    <glyph glyph-name="acircumflex" unicode="&#xe2;" horiz-adv-x="539" 
d="M219 -12q-85 0 -131.5 35t-46.5 118q0 79 55 129q32 29 89 34t157 5v16q0 61 -19.5 89.5t-68.5 28.5q-25 0 -45 -10l-24 -87l-74 2q-25 38 -27 121q20 10 94 30.5t95 20.5q108 0 157 -44.5t49 -141t-9 -254.5q57 -5 88 -17q1 -12 1 -29l-1 -22q-72 -24 -145 -24
q-19 0 -28 1q-15 30 -18 72h-5q-19 -18 -66.5 -45.5t-76.5 -27.5zM189.5 86.5q20.5 -15.5 46.5 -15.5t62 23.5t58 42.5l-5 92q-79 -4 -119 -15q-63 -13 -63 -79q0 -33 20.5 -48.5zM392 555q-73 37 -105 61q-18 -14 -105 -61q-38 36 -53 60l158 131l159 -131q-14 -22 -54 -60
z" />
    <glyph glyph-name="atilde" unicode="&#xe3;" horiz-adv-x="539" 
d="M219 -12q-85 0 -131.5 35t-46.5 118q0 79 55 129q32 29 89 34t157 5v16q0 61 -19.5 89.5t-68.5 28.5q-25 0 -45 -10l-24 -87l-74 2q-25 38 -27 121q20 10 94 30.5t95 20.5q108 0 157 -44.5t49 -141t-9 -254.5q57 -5 88 -17q1 -12 1 -29l-1 -22q-72 -24 -145 -24
q-19 0 -28 1q-15 30 -18 72h-5q-19 -18 -66.5 -45.5t-76.5 -27.5zM189.5 86.5q20.5 -15.5 46.5 -15.5t62 23.5t58 42.5l-5 92q-79 -4 -119 -15q-63 -13 -63 -79q0 -33 20.5 -48.5zM136 565q-19 25 -32 53q18 25 91 80q19 14 37 14t63 -20t62 -24q88 42 89 43q24 -34 33 -53
q-28 -41 -93 -83q-20 -14 -35 -14q-23 7 -62 23.5t-59 21.5q-15 -9 -47 -21.5t-47 -19.5z" />
    <glyph glyph-name="adieresis" unicode="&#xe4;" horiz-adv-x="539" 
d="M219 -12q-85 0 -131.5 35t-46.5 118q0 79 55 129q32 29 89 34t157 5v16q0 61 -19.5 89.5t-68.5 28.5q-25 0 -45 -10l-24 -87l-74 2q-25 38 -27 121q20 10 94 30.5t95 20.5q108 0 157 -44.5t49 -141t-9 -254.5q57 -5 88 -17q1 -12 1 -29l-1 -22q-72 -24 -145 -24
q-19 0 -28 1q-15 30 -18 72h-5q-19 -18 -66.5 -45.5t-76.5 -27.5zM189.5 86.5q20.5 -15.5 46.5 -15.5t62 23.5t58 42.5l-5 92q-79 -4 -119 -15q-63 -13 -63 -79q0 -33 20.5 -48.5zM267 683q8 -34 8 -54.5t-3 -47.5q-30 -8 -55.5 -8t-58.5 3q-8 34 -8 54.5t3 47.5
q30 8 55.5 8t58.5 -3zM430 683q8 -34 8 -54.5t-3 -47.5q-30 -8 -55.5 -8t-58.5 3q-8 34 -8 54.5t3 47.5q30 8 55.5 8t58.5 -3z" />
    <glyph glyph-name="aring" unicode="&#xe5;" horiz-adv-x="539" 
d="M219 -12q-85 0 -131.5 35t-46.5 118q0 79 55 129q32 29 89 34t157 5v16q0 61 -19.5 89.5t-68.5 28.5q-25 0 -45 -10l-24 -87l-74 2q-25 38 -27 121q20 10 94 30.5t95 20.5q108 0 157 -44.5t49 -141t-9 -254.5q57 -5 88 -17q1 -12 1 -29l-1 -22q-72 -24 -145 -24
q-19 0 -28 1q-15 30 -18 72h-5q-19 -18 -66.5 -45.5t-76.5 -27.5zM189.5 86.5q20.5 -15.5 46.5 -15.5t62 23.5t58 42.5l-5 92q-79 -4 -119 -15q-63 -13 -63 -79q0 -33 20.5 -48.5zM246 719.5q-11 -12.5 -11 -34t11 -33.5t29.5 -12t29.5 12t11 33.5t-11 34t-29.5 12.5
t-29.5 -12.5zM367.5 771q38.5 -32 38.5 -86.5t-38 -84t-92 -29.5t-93 30t-39 84t39.5 86t92.5 32t91.5 -32z" />
    <glyph glyph-name="ae" unicode="&#xe6;" horiz-adv-x="826" 
d="M584 -12q-128 0 -193 86q-24 -24 -82 -55t-90 -31q-174 0 -174 153q0 82 53 129q31 27 79 33t169 6v21q0 58 -21 85.5t-67 27.5q-23 0 -45 -10l-24 -86q-59 0 -74 1q-26 39 -27 121q21 10 92 30.5t91 20.5q110 0 148 -42q59 50 158 50t151.5 -65.5t52.5 -168.5
q0 -13 -1 -18q-9 -17 -22 -31q-193 4 -287 5q2 -70 28 -117.5t80 -47.5t154 48q19 -24 33 -74q-126 -71 -182 -71zM193.5 86.5q20.5 -15.5 46.5 -15.5t62 23.5t58 42.5l-5 92q-79 -4 -119 -15q-63 -13 -63 -79q0 -33 20.5 -48.5zM575 437q-38 0 -71 -15q-23 -48 -29 -89
q78 3 177 4q-5 100 -77 100z" />
    <glyph glyph-name="ccedilla" unicode="&#xe7;" horiz-adv-x="475" 
d="M307 437l-16 1q-56 0 -89.5 -38.5t-33.5 -129t25.5 -137.5t98.5 -47q34 0 144 46q25 -35 27 -73q-88 -54 -161 -69l-4 -16q71 -38 71 -68t-35 -66.5t-80 -52.5l-26 31q2 5 12 24q24 44 24 57q0 6 -58 29q0 23 13 64q-183 32 -183 252q0 276 249 276q43 0 88.5 -10.5
t71.5 -26.5q-3 -100 -22 -145q-33 -8 -93 -8z" />
    <glyph glyph-name="egrave" unicode="&#xe8;" horiz-adv-x="512" 
d="M297 86q34 0 138 47q22 -32 33 -74q-55 -34 -107.5 -52.5t-74.5 -18.5q-121 0 -183.5 67t-62.5 190.5t62 199t184 75.5q97 0 148 -63t51 -164q0 -21 -24 -48l-288 5q2 -80 30 -122t94 -42zM277 437q-38 0 -71 -15q-23 -48 -29 -89q78 3 177 4q-5 100 -77 100zM189 747
l158 -131q-28 -36 -62 -63q-101 50 -159 107q2 18 17.5 39.5t45.5 47.5z" />
    <glyph glyph-name="eacute" unicode="&#xe9;" horiz-adv-x="512" 
d="M297 86q34 0 138 47q22 -32 33 -74q-55 -34 -107.5 -52.5t-74.5 -18.5q-121 0 -183.5 67t-62.5 190.5t62 199t184 75.5q97 0 148 -63t51 -164q0 -21 -24 -48l-288 5q2 -80 30 -122t94 -42zM277 437q-38 0 -71 -15q-23 -48 -29 -89q78 3 177 4q-5 100 -77 100zM184 616
l158 131q59 -47 63 -87q-26 -25 -65.5 -52t-93.5 -55q-32 24 -62 63z" />
    <glyph glyph-name="ecircumflex" unicode="&#xea;" horiz-adv-x="512" 
d="M297 86q34 0 138 47q22 -32 33 -74q-55 -34 -107.5 -52.5t-74.5 -18.5q-121 0 -183.5 67t-62.5 190.5t62 199t184 75.5q97 0 148 -63t51 -164q0 -21 -24 -48l-288 5q2 -80 30 -122t94 -42zM277 437q-38 0 -71 -15q-23 -48 -29 -89q78 3 177 4q-5 100 -77 100zM366 555
q-73 37 -105 61q-18 -14 -105 -61q-38 36 -53 60l158 131l159 -131q-14 -22 -54 -60z" />
    <glyph glyph-name="edieresis" unicode="&#xeb;" horiz-adv-x="512" 
d="M297 86q34 0 138 47q22 -32 33 -74q-55 -34 -107.5 -52.5t-74.5 -18.5q-121 0 -183.5 67t-62.5 190.5t62 199t184 75.5q97 0 148 -63t51 -164q0 -21 -24 -48l-288 5q2 -80 30 -122t94 -42zM277 437q-38 0 -71 -15q-23 -48 -29 -89q78 3 177 4q-5 100 -77 100zM232 683
q8 -34 8 -54.5t-3 -47.5q-30 -8 -55.5 -8t-58.5 3q-8 34 -8 54.5t3 47.5q30 8 55.5 8t58.5 -3zM395 683q8 -34 8 -54.5t-3 -47.5q-30 -8 -55.5 -8t-58.5 3q-8 34 -8 54.5t3 47.5q30 8 55.5 8t58.5 -3z" />
    <glyph glyph-name="igrave" unicode="&#xec;" horiz-adv-x="308" 
d="M83 747l158 -131q-28 -36 -62 -63q-101 50 -159 107q2 18 17.5 39.5t45.5 47.5zM239 512q19 0 24 -1q0 -49 -17 -91q-4 -216 -5 -324l78 -9q0 -41 -23 -87h-249l-9 55q62 23 90 30l-11 324q-59 6 -87 15q0 25 7 72q59 16 202 16z" />
    <glyph glyph-name="iacute" unicode="&#xed;" horiz-adv-x="308" 
d="M87 616l158 131q59 -47 63 -87q-26 -25 -65.5 -52t-93.5 -55q-32 24 -62 63zM239 512q19 0 24 -1q0 -49 -17 -91q-4 -216 -5 -324l78 -9q0 -41 -23 -87h-249l-9 55q62 23 90 30l-11 324q-59 6 -87 15q0 25 7 72q59 16 202 16z" />
    <glyph glyph-name="icircumflex" unicode="&#xee;" horiz-adv-x="308" 
d="M283 555q-73 37 -105 61q-18 -14 -105 -61q-38 36 -53 60l158 131l159 -131q-14 -22 -54 -60zM239 512q19 0 24 -1q0 -49 -17 -91q-4 -216 -5 -324l78 -9q0 -41 -23 -87h-249l-9 55q62 23 90 30l-11 324q-59 6 -87 15q0 25 7 72q59 16 202 16z" />
    <glyph glyph-name="idieresis" unicode="&#xef;" horiz-adv-x="308" 
d="M132 683q8 -34 8 -54.5t-3 -47.5q-30 -8 -55.5 -8t-58.5 3q-8 34 -8 54.5t3 47.5q30 8 55.5 8t58.5 -3zM295 683q8 -34 8 -54.5t-3 -47.5q-30 -8 -55.5 -8t-58.5 3q-8 34 -8 54.5t3 47.5q30 8 55.5 8t58.5 -3zM239 512q19 0 24 -1q0 -49 -17 -91q-4 -216 -5 -324l78 -9
q0 -41 -23 -87h-249l-9 55q62 23 90 30l-11 324q-59 6 -87 15q0 25 7 72q59 16 202 16z" />
    <glyph glyph-name="eth" unicode="&#xf0;" horiz-adv-x="579" 
d="M528 334q0 -346 -253 -346q-107 0 -173 79t-66 180t62.5 175.5t168.5 74.5q44 0 113 -32q-14 74 -47 117l-105 -69q-32 32 -53 72q37 34 74 61q-47 17 -116 23q-1 6 -1 26.5t15 46.5q102 0 182 -40l98 63q21 -26 42 -75q-23 -26 -55 -51q114 -112 114 -305zM192.5 365.5
q-23.5 -39.5 -23.5 -124t25.5 -123.5t85.5 -39q117 0 117 257q0 18 -1 27q-78 42 -129 42t-74.5 -39.5z" />
    <glyph glyph-name="ntilde" unicode="&#xf1;" horiz-adv-x="616" 
d="M509 471q45 -49 45 -137t-10 -238l79 -9q0 -41 -23 -87h-249l-9 55q47 19 87 30q-3 115 -6 193.5t-15 106.5t-53 28q-62 0 -111 -22q-1 -43 -5.5 -140.5t-5.5 -154.5l78 -9q0 -41 -23 -87h-249l-9 55q50 19 90 30q-1 60 -6.5 166t-6.5 157q-37 4 -79 15l5 72
q70 19 158 19q11 -7 30 -43q34 17 83 33t60 16q100 0 145 -49zM158 565q-19 24 -32 53q18 25 91 80q19 14 37 14t63 -20t62 -24q88 42 89 43q24 -34 33 -53q-28 -41 -93 -83q-20 -14 -35 -14q-23 7 -62 23.5t-59 21.5q-15 -9 -47 -21.5t-47 -19.5z" />
    <glyph glyph-name="ograve" unicode="&#xf2;" horiz-adv-x="538" 
d="M295 440q-36 0 -82 -18q-13 -20 -24.5 -70.5t-11.5 -101.5q0 -94 28 -133.5t90.5 -39.5t90.5 39.5t28 136t-28.5 142t-90.5 45.5zM483.5 448.5q71.5 -71.5 71.5 -199t-71 -194.5t-189 -67t-188.5 67t-70.5 194.5t71 199t188 71.5t188.5 -71.5zM218 747l158 -131
q-28 -36 -62 -63q-101 50 -159 107q2 18 17.5 39.5t45.5 47.5z" />
    <glyph glyph-name="oacute" unicode="&#xf3;" horiz-adv-x="538" 
d="M295 440q-36 0 -82 -18q-13 -20 -24.5 -70.5t-11.5 -101.5q0 -94 28 -133.5t90.5 -39.5t90.5 39.5t28 136t-28.5 142t-90.5 45.5zM483.5 448.5q71.5 -71.5 71.5 -199t-71 -194.5t-189 -67t-188.5 67t-70.5 194.5t71 199t188 71.5t188.5 -71.5zM203 616l158 131
q59 -47 63 -87q-26 -25 -65.5 -52t-93.5 -55q-32 24 -62 63z" />
    <glyph glyph-name="ocircumflex" unicode="&#xf4;" horiz-adv-x="538" 
d="M295 440q-36 0 -82 -18q-13 -20 -24.5 -70.5t-11.5 -101.5q0 -94 28 -133.5t90.5 -39.5t90.5 39.5t28 136t-28.5 142t-90.5 45.5zM483.5 448.5q71.5 -71.5 71.5 -199t-71 -194.5t-189 -67t-188.5 67t-70.5 194.5t71 199t188 71.5t188.5 -71.5zM380 555q-73 37 -105 61
q-18 -14 -105 -61q-38 36 -53 60l158 131l159 -131q-14 -22 -54 -60z" />
    <glyph glyph-name="otilde" unicode="&#xf5;" horiz-adv-x="538" 
d="M295 440q-36 0 -82 -18q-13 -20 -24.5 -70.5t-11.5 -101.5q0 -94 28 -133.5t90.5 -39.5t90.5 39.5t28 136t-28.5 142t-90.5 45.5zM483.5 448.5q71.5 -71.5 71.5 -199t-71 -194.5t-189 -67t-188.5 67t-70.5 194.5t71 199t188 71.5t188.5 -71.5zM133 565q-19 25 -32 53
q18 25 91 80q19 14 37 14t63 -20t62 -24q88 42 89 43q24 -34 33 -53q-28 -41 -93 -83q-20 -14 -35 -14q-23 7 -62 23.5t-59 21.5q-15 -9 -47 -21.5t-47 -19.5z" />
    <glyph glyph-name="odieresis" unicode="&#xf6;" horiz-adv-x="538" 
d="M295 440q-36 0 -82 -18q-13 -20 -24.5 -70.5t-11.5 -101.5q0 -94 28 -133.5t90.5 -39.5t90.5 39.5t28 136t-28.5 142t-90.5 45.5zM483.5 448.5q71.5 -71.5 71.5 -199t-71 -194.5t-189 -67t-188.5 67t-70.5 194.5t71 199t188 71.5t188.5 -71.5zM255 683q8 -34 8 -54.5
t-3 -47.5q-30 -8 -55.5 -8t-58.5 3q-8 34 -8 54.5t3 47.5q30 8 55.5 8t58.5 -3zM418 683q8 -34 8 -54.5t-3 -47.5q-30 -8 -55.5 -8t-58.5 3q-8 34 -8 54.5t3 47.5q30 8 55.5 8t58.5 -3z" />
    <glyph glyph-name="divide" unicode="&#xf7;" horiz-adv-x="566" 
d="M354 127q9 -36 9 -61.5t-3 -57.5q-34 -9 -65 -9t-68 3q-10 40 -10 58.5t4 60.5q33 9 63.5 9t69.5 -3zM354 512q9 -36 9 -62t-3 -57q-34 -9 -65 -9t-68 3q-10 40 -10 58.5t4 60.5q33 9 63.5 9t69.5 -3zM50 301q78 14 121.5 14t193 -3t165.5 -4q5 -20 5 -43l-4 -42
q-78 -15 -133 -15l-347 7q-6 30 -6 42z" />
    <glyph glyph-name="oslash" unicode="&#xf8;" horiz-adv-x="538" 
d="M555 249q0 -127 -71 -194t-189 -67q-30 0 -67 7l-38 -95q-49 6 -71 27l36 92q-119 64 -119 230q0 128 71 199.5t188 71.5q18 0 52 -4l40 101q51 -10 83 -30l-41 -99q59 -32 92.5 -93t33.5 -146zM389 113q29 40 29 136.5t-27 143.5l-130 -317q17 -3 34 -3q65 0 94 40z
M319 442q-16 2 -29 2q-31 0 -77 -18q-4 -7 -11 -19.5t-18 -58.5t-11 -115t22 -110z" />
    <glyph glyph-name="ugrave" unicode="&#xf9;" 
d="M509 512q19 0 24 -1q0 -51 -17 -88q-6 -220 -10 -325q45 -4 79 -15l-2 -70q-61 -19 -105 -19t-60 2q-12 24 -20 48q-83 -56 -120 -56q-179 0 -179 181q0 49 8 241q-53 0 -97 14q0 25 7 72q59 16 202 16q19 0 24 -1q0 -49 -17 -91v-202q0 -64 13.5 -93.5t58 -29.5t91.5 31
l-6 284q-44 2 -83 14q0 25 7 72q59 16 202 16zM207 747l158 -131q-28 -36 -62 -63q-101 50 -159 107q2 18 17.5 39.5t45.5 47.5z" />
    <glyph glyph-name="uacute" unicode="&#xfa;" 
d="M509 512q19 0 24 -1q0 -51 -17 -88q-6 -220 -10 -325q45 -4 79 -15l-2 -70q-61 -19 -105 -19t-60 2q-12 24 -20 48q-83 -56 -120 -56q-179 0 -179 181q0 49 8 241q-53 0 -97 14q0 25 7 72q59 16 202 16q19 0 24 -1q0 -49 -17 -91v-202q0 -64 13.5 -93.5t58 -29.5t91.5 31
l-6 284q-44 2 -83 14q0 25 7 72q59 16 202 16zM210 616l158 131q59 -47 63 -87q-26 -25 -65.5 -52t-93.5 -55q-32 24 -62 63z" />
    <glyph glyph-name="ucircumflex" unicode="&#xfb;" 
d="M509 512q19 0 24 -1q0 -51 -17 -88q-6 -220 -10 -325q45 -4 79 -15l-2 -70q-61 -19 -105 -19t-60 2q-12 24 -20 48q-83 -56 -120 -56q-179 0 -179 181q0 49 8 241q-53 0 -97 14q0 25 7 72q59 16 202 16q19 0 24 -1q0 -49 -17 -91v-202q0 -64 13.5 -93.5t58 -29.5t91.5 31
l-6 284q-44 2 -83 14q0 25 7 72q59 16 202 16zM392 555q-73 37 -105 61q-18 -14 -105 -61q-38 36 -53 60l158 131l159 -131q-14 -22 -54 -60z" />
    <glyph glyph-name="udieresis" unicode="&#xfc;" 
d="M509 512q19 0 24 -1q0 -51 -17 -88q-6 -220 -10 -325q45 -4 79 -15l-2 -70q-61 -19 -105 -19t-60 2q-12 24 -20 48q-83 -56 -120 -56q-179 0 -179 181q0 49 8 241q-53 0 -97 14q0 25 7 72q59 16 202 16q19 0 24 -1q0 -49 -17 -91v-202q0 -64 13.5 -93.5t58 -29.5t91.5 31
l-6 284q-44 2 -83 14q0 25 7 72q59 16 202 16zM263 683q8 -34 8 -54.5t-3 -47.5q-30 -8 -55.5 -8t-58.5 3q-8 34 -8 54.5t3 47.5q30 8 55.5 8t58.5 -3zM426 683q8 -34 8 -54.5t-3 -47.5q-30 -8 -55.5 -8t-58.5 3q-8 34 -8 54.5t3 47.5q30 8 55.5 8t58.5 -3z" />
    <glyph glyph-name="yacute" unicode="&#xfd;" horiz-adv-x="590" 
d="M169 -242q-29 0 -64 10t-75 30q6 115 11 137q38 10 62.5 10t31.5 -1l32 -100l9 1q23 3 47 55t35 100h-42l-148 412l-78 9q0 41 23 87h249l9 -55q-41 -19 -69 -26l76 -237l9 -43h22l85 280q-34 6 -84 26l9 55h249q23 -46 23 -87q-39 -6 -78 -8q-90 -264 -140.5 -408
t-91.5 -195.5t-112 -51.5zM240 616l158 131q59 -47 63 -87q-26 -25 -65.5 -52t-93.5 -55q-32 24 -62 63z" />
    <glyph glyph-name="thorn" unicode="&#xfe;" horiz-adv-x="579" 
d="M332 528q221 0 221 -269q0 -94 -51 -177q-26 -42 -71.5 -68t-102.5 -26q-34 0 -95 35q-2 -98 -2 -147l78 -9q0 -39 -23 -87h-249l-9 55q56 21 90 30q-2 151 -10 431t-9 344q-46 5 -79 15q0 32 8 72q64 16 194 16q23 0 31 -1q0 -50 -13 -91q-3 -52 -3 -155q72 32 95 32z
M326 424q-36 0 -86 -26q-5 -222 -5 -268q59 -44 86 -44q48 0 76 45t28 123q0 170 -99 170z" />
    <glyph glyph-name="ydieresis" unicode="&#xff;" horiz-adv-x="590" 
d="M169 -242q-29 0 -64 10t-75 30q6 115 11 137q38 10 62.5 10t31.5 -1l32 -100l9 1q23 3 47 55t35 100h-42l-148 412l-78 9q0 41 23 87h249l9 -55q-41 -19 -69 -26l76 -237l9 -43h22l85 280q-34 6 -84 26l9 55h249q23 -46 23 -87q-39 -6 -78 -8q-90 -264 -140.5 -408
t-91.5 -195.5t-112 -51.5zM254 683q8 -34 8 -54.5t-3 -47.5q-30 -8 -55.5 -8t-58.5 3q-8 34 -8 54.5t3 47.5q30 8 55.5 8t58.5 -3zM417 683q8 -34 8 -54.5t-3 -47.5q-30 -8 -55.5 -8t-58.5 3q-8 34 -8 54.5t3 47.5q30 8 55.5 8t58.5 -3z" />
    <glyph glyph-name="Amacron" unicode="&#x100;" horiz-adv-x="739" 
d="M519 689l1 -10q0 -41 -13 -70q-13 -10 -41 -16l167 -494l95 -12q0 -41 -23 -87h-243l-9 55q42 16 55 21l-40 113h-225q-30 -89 -32 -93l69 -9q0 -21 -8 -48.5t-15 -38.5h-243l-9 55q45 19 81 28l168 514q-67 10 -101 26q0 29 9 51q21 7 98.5 16.5t148 9.5t110.5 -11z
M390 414l-29 132h-10l-32 -138l-47 -125h167zM264 889q69 7 121.5 7t126.5 -7q2 -9 2 -39l-3 -48q-69 -6 -113 -6l-133 5q-5 23 -5 40z" />
    <glyph glyph-name="amacron" unicode="&#x101;" horiz-adv-x="539" 
d="M219 -12q-85 0 -131.5 35t-46.5 118q0 79 55 129q32 29 89 34t157 5v16q0 61 -19.5 89.5t-68.5 28.5q-25 0 -45 -10l-24 -87l-74 2q-25 38 -27 121q20 10 94 30.5t95 20.5q108 0 157 -44.5t49 -141t-9 -254.5q57 -5 88 -17q1 -12 1 -29l-1 -22q-72 -24 -145 -24
q-19 0 -28 1q-15 30 -18 72h-5q-19 -18 -66.5 -45.5t-76.5 -27.5zM189.5 86.5q20.5 -15.5 46.5 -15.5t62 23.5t58 42.5l-5 92q-79 -4 -119 -15q-63 -13 -63 -79q0 -33 20.5 -48.5zM163 697q69 7 121.5 7t126.5 -7q2 -9 2 -39l-3 -48q-69 -6 -113 -6l-133 5q-5 23 -5 40z" />
    <glyph glyph-name="Abreve" unicode="&#x102;" horiz-adv-x="739" 
d="M519 689l1 -10q0 -41 -13 -70q-13 -10 -41 -16l167 -494l95 -12q0 -41 -23 -87h-243l-9 55q42 16 55 21l-40 113h-225q-30 -89 -32 -93l69 -9q0 -21 -8 -48.5t-15 -38.5h-243l-9 55q45 19 81 28l168 514q-67 10 -101 26q0 29 9 51q21 7 98.5 16.5t148 9.5t110.5 -11z
M390 414l-29 132h-10l-32 -138l-47 -125h167z" />
    <glyph glyph-name="abreve" unicode="&#x103;" horiz-adv-x="539" 
d="M219 -12q-85 0 -131.5 35t-46.5 118q0 79 55 129q32 29 89 34t157 5v16q0 61 -19.5 89.5t-68.5 28.5q-25 0 -45 -10l-24 -87l-74 2q-25 38 -27 121q20 10 94 30.5t95 20.5q108 0 157 -44.5t49 -141t-9 -254.5q57 -5 88 -17q1 -12 1 -29l-1 -22q-72 -24 -145 -24
q-19 0 -28 1q-15 30 -18 72h-5q-19 -18 -66.5 -45.5t-76.5 -27.5zM189.5 86.5q20.5 -15.5 46.5 -15.5t62 23.5t58 42.5l-5 92q-79 -4 -119 -15q-63 -13 -63 -79q0 -33 20.5 -48.5zM425 737q0 -64 -43 -113t-114.5 -49t-112 48.5t-40.5 113.5h82q0 -28 17.5 -48.5t54.5 -20.5
q63 0 63 69h93z" />
    <glyph glyph-name="Emacron" unicode="&#x112;" 
d="M249 600q0 -114 -2 -196h102l10 69q51 0 99 -25v-200l-66 -3q-24 36 -28 63h-118q-2 -140 -2 -211h171l22 87q62 0 94 -6q15 -57 15 -103.5t-3 -74.5h-496l-9 55q65 25 84 29q-1 59 -2 166q-4 240 -7 363l-83 26l8 61h491q3 -27 3 -67.5t-15 -112.5q-31 -10 -94 -10
l-23 90h-151zM191 889q69 7 122 7t126 -7q2 -9 2 -39l-3 -48q-69 -6 -113 -6l-133 5q-5 23 -5 40z" />
    <glyph glyph-name="emacron" unicode="&#x113;" horiz-adv-x="512" 
d="M297 86q34 0 138 47q22 -32 33 -74q-55 -34 -107.5 -52.5t-74.5 -18.5q-121 0 -183.5 67t-62.5 190.5t62 199t184 75.5q97 0 148 -63t51 -164q0 -21 -24 -48l-288 5q2 -80 30 -122t94 -42zM277 437q-38 0 -71 -15q-23 -48 -29 -89q78 3 177 4q-5 100 -77 100zM132 697
q69 7 121.5 7t126.5 -7q2 -9 2 -39l-3 -48q-69 -6 -113 -6l-133 5q-5 23 -5 40z" />
    <glyph glyph-name="Ebreve" unicode="&#x114;" 
d="M249 600q0 -114 -2 -196h102l10 69q51 0 99 -25v-200l-66 -3q-24 36 -28 63h-118q-2 -140 -2 -211h171l22 87q62 0 94 -6q15 -57 15 -103.5t-3 -74.5h-496l-9 55q65 25 84 29q-1 59 -2 166q-4 240 -7 363l-83 26l8 61h491q3 -27 3 -67.5t-15 -112.5q-31 -10 -94 -10
l-23 90h-151zM460 928q0 -64 -43 -113t-114.5 -49t-112 48.5t-40.5 113.5h82q0 -28 17.5 -48.5t54.5 -20.5q63 0 63 69h93z" />
    <glyph glyph-name="ebreve" unicode="&#x115;" horiz-adv-x="508" 
d="M297 86q34 0 138 47q22 -32 33 -74q-55 -34 -107.5 -52.5t-74.5 -18.5q-121 0 -183.5 67t-62.5 190.5t62 199t184 75.5q97 0 148 -63t51 -164q0 -21 -24 -48l-288 5q2 -80 30 -122t94 -42zM277 437q-38 0 -71 -15q-23 -48 -29 -89q78 3 177 4q-5 100 -77 100zM418 737
q0 -64 -43 -113t-114.5 -49t-112 48.5t-40.5 113.5h82q0 -28 17.5 -48.5t54.5 -20.5q63 0 63 69h93z" />
    <glyph glyph-name="Gbreve" unicode="&#x11e;" horiz-adv-x="676" 
d="M318 -13q-136 0 -217 92t-81 272t70.5 270.5t228.5 90.5q67 0 128.5 -18t83.5 -30.5t35 -22.5q0 -64 -16 -142q-26 -12 -51.5 -12t-43.5 2l-21 104q-44 12 -86 12q-59 0 -147 -24q-44 -88 -44 -214q0 -276 162 -276q81 0 129 27q2 52 4 160l-84 26l8 61h242
q12 -22 18 -79q-34 -7 -73 -10q6 -129 6 -222q-29 -19 -105 -43t-146 -24zM480 928q0 -64 -43 -113t-114.5 -49t-112 48.5t-40.5 113.5h82q0 -28 17.5 -48.5t54.5 -20.5q63 0 63 69h93z" />
    <glyph glyph-name="gbreve" unicode="&#x11f;" horiz-adv-x="578" 
d="M364 142.5q-37 -9.5 -71.5 -9.5t-60.5 7q-11 -26 -21 -39q8 -12 168 -12q100 0 141 -31q19 -13 33.5 -41t14.5 -72.5t-44 -89.5t-110 -71t-131 -26q-108 0 -175 42.5t-67 105.5q0 12 35 58.5t46 53.5q-10 5 -35 33.5t-28 40.5q13 36 80 90q-78 47 -78 158q0 88 60.5 134
t160 46t150.5 -27q85 15 120.5 15t46.5 -1q0 -24 -11.5 -54.5t-21.5 -42.5l-86 20q25 -36 25 -93t-19 -99.5t-52 -64t-70 -31zM436 -69q0 25 -22 36.5t-52 11.5q-117 0 -155 2q-8 -17 -20 -48.5t-12 -37.5t8 -17.5t34.5 -24.5t65 -13t90.5 18t56 29q7 19 7 44zM283 445
q-42 0 -65.5 -27t-23.5 -78.5t24 -80.5t65 -29q89 0 89 110q0 51 -23.5 78t-65.5 27z" />
    <glyph glyph-name="hbar" unicode="&#x127;" horiz-adv-x="617" 
d="M284 601q4 -19 4 -30t-3 -35q-22 -3 -47 -5v-51q32 14 73 27t51 13q102 0 146.5 -46t44.5 -145q0 -10 -10 -233l78 -10q0 -43 -23 -86h-249l-9 55q67 27 86 29q0 2 -6 214q-2 60 -15 87.5t-41.5 27.5t-65 -6.5t-56.5 -15.5l-11 -295l78 -9q0 -41 -23 -87h-249l-9 55
q62 23 90 30l-16 446l-75 4q-5 17 -5 29.5t3 36.5q38 4 75 6v43q-48 5 -80 15q0 20 7 62q59 16 202 16q19 0 24 -1q0 -52 -13 -91q-1 -16 -1 -48z" />
    <glyph glyph-name="Itilde" unicode="&#x128;" horiz-adv-x="380" 
d="M323 700q-1 0 0.5 -2t4 -8.5t5.5 -15.5q6 -16 8 -53q-51 -8 -67 -10l-5 -515l69 -9q0 -41 -23 -87h-243l-9 55q56 23 84 29q-1 59 -3 166q-3 240 -6 363l-83 26l8 61h260zM50 757q-19 25 -32 53q18 25 91 80q19 14 37 14t63 -20t62 -24q88 42 89 43q24 -34 33 -53
q-28 -41 -93 -83q-20 -14 -35 -14q-23 7 -62 23.5t-59 21.5q-15 -9 -47 -21.5t-47 -19.5z" />
    <glyph glyph-name="itilde" unicode="&#x129;" horiz-adv-x="308" 
d="M18 565q-19 25 -32 53q18 25 91 80q19 14 37 14t63 -20t62 -24q88 42 89 43q24 -34 33 -53q-28 -41 -93 -83q-20 -14 -35 -14q-23 7 -62 23.5t-59 21.5q-15 -9 -47 -21.5t-47 -19.5zM239 512q19 0 24 -1q0 -49 -17 -91q-4 -216 -5 -324l78 -9q0 -41 -23 -87h-249l-9 55
q62 23 90 30l-11 324q-59 6 -87 15q0 25 7 72q59 16 202 16z" />
    <glyph glyph-name="Imacron" unicode="&#x12a;" horiz-adv-x="380" 
d="M323 700q-1 0 0.5 -2t4 -8.5t5.5 -15.5q6 -16 8 -53q-51 -8 -67 -10l-5 -515l69 -9q0 -41 -23 -87h-243l-9 55q56 23 84 29q-1 59 -3 166q-3 240 -6 363l-83 26l8 61h260zM79 889q69 7 122 7t126 -7q2 -9 2 -39l-3 -48q-69 -6 -113 -6l-133 5q-5 23 -5 40z" />
    <glyph glyph-name="imacron" unicode="&#x12b;" horiz-adv-x="308" 
d="M239 512q19 0 24 -1q0 -49 -17 -91q-4 -216 -5 -324l78 -9q0 -41 -23 -87h-249l-9 55q62 23 90 30l-11 324q-59 6 -87 15q0 25 7 72q59 16 202 16zM55 697q69 7 121.5 7t126.5 -7q2 -9 2 -39l-3 -48q-69 -6 -113 -6l-133 5q-5 23 -5 40z" />
    <glyph glyph-name="Ibreve" unicode="&#x12c;" horiz-adv-x="380" 
d="M323 700q-1 0 0.5 -2t4 -8.5t5.5 -15.5q6 -16 8 -53q-51 -8 -67 -10l-5 -515l69 -9q0 -41 -23 -87h-243l-9 55q56 23 84 29q-1 59 -3 166q-3 240 -6 363l-83 26l8 61h260zM365 928q0 -64 -43 -113t-114.5 -49t-112 48.5t-40.5 113.5h82q0 -28 17.5 -48.5t54.5 -20.5
q63 0 63 69h93z" />
    <glyph glyph-name="ibreve" unicode="&#x12d;" horiz-adv-x="308" 
d="M239 512q19 0 24 -1q0 -49 -17 -91q-4 -216 -5 -324l78 -9q0 -41 -23 -87h-249l-9 55q62 23 90 30l-11 324q-59 6 -87 15q0 25 7 72q59 16 202 16z" />
    <glyph glyph-name="dotlessi" unicode="&#x131;" horiz-adv-x="308" 
d="M239 512q19 0 24 -1q0 -49 -17 -91q-4 -216 -5 -324l78 -9q0 -41 -23 -87h-249l-9 55q62 23 90 30l-11 324q-59 6 -87 15q0 25 7 72q59 16 202 16z" />
    <glyph glyph-name="IJ" unicode="&#x132;" horiz-adv-x="841" 
d="M323 700q-1 0 0.5 -2t4 -8.5t5.5 -15.5q6 -16 8 -53q-51 -8 -67 -10l-5 -515l69 -9q0 -41 -23 -87h-243l-9 55q56 23 84 29q-1 59 -3 166q-3 240 -6 363l-83 26l8 61h260zM562 93q63 0 63 96q0 36 -11 424l-83 26l8 61h260q18 -39 18 -79q-60 -10 -67 -10
q-1 -58 -1.5 -207t-2.5 -233.5t-44 -134t-122 -49.5q-58 0 -115.5 18t-82.5 42q1 73 16 166q40 11 98 11l19 -127q16 -4 47 -4z" />
    <glyph glyph-name="ij" unicode="&#x133;" horiz-adv-x="613" 
d="M254 512q19 0 24 -1q0 -49 -17 -91q-4 -216 -5 -324l78 -9q0 -41 -23 -87h-249l-9 55q62 23 90 30l-11 324q-58 6 -87 15q0 37 7 72q59 16 202 16zM359 -150l21 -1q33 0 48.5 34.5t15.5 85.5q0 125 -15 440q-59 6 -87 15q0 25 7 72q59 16 202 16q19 0 24 -1
q0 -49 -17 -91l-4 -433q-1 -118 -37 -172.5t-141 -54.5q-34 0 -84.5 15.5t-71.5 29.5q5 96 21 144q23 9 61 9l33 -1zM551 701q9 -45 9 -68.5t-4 -52.5q-40 -9 -67.5 -9t-66.5 3q-9 45 -9 68.5t4 52.5q40 9 67.5 9t66.5 -3z" />
    <glyph glyph-name="Jcircumflex" unicode="&#x134;" horiz-adv-x="464" 
d="M135 93q63 0 63 96q0 36 -11 424l-83 26l8 61h260q18 -39 18 -79q-60 -10 -67 -10q-1 -58 -1.5 -207t-2.5 -233.5t-44 -134t-122 -49.5q-58 0 -115.5 18t-82.5 42q1 73 16 166q40 11 98 11l19 -127q16 -4 47 -4zM429 747q-73 37 -105 61q-18 -14 -105 -61q-38 36 -53 60
l158 131l159 -131q-14 -22 -54 -60z" />
    <glyph glyph-name="jcircumflex" unicode="&#x135;" horiz-adv-x="305" 
d="M41 -150l21 -1q33 0 48.5 34.5t15.5 85.5q0 164 -15 440q-59 6 -87 15q0 25 7 72q59 16 202 16q19 0 24 -1q0 -49 -17 -91q-2 -143 -4 -433q-1 -118 -37 -172.5t-141 -54.5q-34 0 -84.5 15.5t-71.5 29.5q5 96 21 144q23 9 61 9l33 -1zM165 746l159 -131q-14 -22 -54 -60
q-7 4 -33 18q-50 26 -72 43q-24 -19 -82 -48l-23 -13q-38 36 -53 60z" />
    <glyph glyph-name="kcedilla" unicode="&#x137;" horiz-adv-x="591" 
d="M228 743q19 0 24 -1q0 -52 -13 -91q-6 -240 -6 -356l119 118l-62 8q0 41 23 87h249l9 -55q-62 -23 -90 -30l-110 -110l140 -217l78 -9q0 -41 -23 -87h-128l-148 232l-59 -59q-1 -26 -1 -77l78 -9q0 -41 -23 -87h-249l-9 55q62 23 90 30l-19 555q-47 5 -79 15q0 37 7 72
q59 16 202 16zM383 -83q8 -30 8 -67.5t-33 -83.5t-61 -63q-31 14 -51 34q11 31 44 72l-17 3q-7 21 -7 49.5t2 51.5q40 8 64 8t51 -4z" />
    <glyph glyph-name="kgreenlandic" unicode="&#x138;" horiz-adv-x="591" 
d="M235 173l-1 -77l78 -9q0 -41 -23 -87h-249l-9 55q62 23 90 30q-1 61 -5 172.5t-5 146.5q-49 2 -92 16q0 37 7 72q59 16 202 16q19 0 24 -1q0 -52 -13 -91q-2 -80 -2 -121l119 118l-62 8q0 41 23 87h249l9 -55q-62 -23 -90 -30l-110 -110l140 -217l78 -9q0 -41 -23 -87
h-128l-148 232z" />
    <glyph glyph-name="Ldotaccent" unicode="&#x13f;" horiz-adv-x="592" 
d="M467 182q24 4 36.5 4t54.5 -7q4 -8 11.5 -51t7.5 -69.5t-6 -58.5h-485l-9 55q49 20 84 29q0 3 -9 529l-83 26l8 61h260q-1 0 0.5 -2t4 -8.5t5.5 -15.5q6 -16 8 -53q-51 -8 -67 -10q-4 -345 -5 -515h162zM545 415q9 -45 9 -68.5t-4 -52.5q-40 -9 -67.5 -9t-66.5 3
q-9 45 -9 68.5t4 52.5q40 9 67.5 9t66.5 -3z" />
    <glyph glyph-name="ldot" unicode="&#x140;" horiz-adv-x="503" 
d="M460 351q9 -36 9 -61.5t-3 -57.5q-34 -9 -65 -9t-68 3q-10 40 -10 58.5t4 60.5q33 9 63.5 9t69.5 -3zM228 743q19 0 24 -1q0 -52 -13 -91q-1 -62 -3 -175q-4 -248 -6 -380l78 -9q0 -41 -23 -87h-249l-9 55q62 23 90 30l-19 555q-47 5 -79 15q0 37 7 72q59 16 202 16z" />
    <glyph glyph-name="Lslash" unicode="&#x141;" horiz-adv-x="592" 
d="M156 364l-4 249l-83 26l8 61h259q16 -27 19 -79q-51 -8 -67 -10q0 -23 -1 -65q-2 -82 -2 -139q22 8 71 21q22 -46 27 -83q-54 -26 -99 -40q-1 -70 -1 -209h162l22 86q24 4 36.5 4t54.5 -7q4 -8 11.5 -51t7.5 -69.5t-6 -58.5h-485l-9 55q49 20 84 29q0 99 -3 180l-65 -21
q-20 34 -30 80q50 25 93 41z" />
    <glyph glyph-name="lslash" unicode="&#x142;" horiz-adv-x="303" 
d="M223 743q19 0 24 -1q0 -52 -13 -91q-4 -164 -5 -246l72 23q21 -46 27 -83q-57 -27 -101 -41q-2 -140 -2 -208l78 -9q0 -41 -23 -87h-249l-9 55q62 23 90 30l-6 180l-68 -22q-20 34 -30 80q50 25 94 42l-9 275q-47 5 -79 15q0 25 7 72q59 16 202 16z" />
    <glyph glyph-name="Nacute" unicode="&#x143;" horiz-adv-x="785" 
d="M710 611l-3 -611h-128l-330 538q-4 -293 -5 -442l69 -9q0 -41 -23 -87h-243l-9 55q56 23 84 29q0 3 -9 529l-83 26l8 61h260l291 -522l-15 435l-83 26l8 61h260q-1 0 0.5 -2t4 -8.5t5.5 -15.5q6 -16 8 -53q-51 -8 -67 -10zM380 808l158 131q59 -47 63 -87
q-26 -25 -65.5 -52t-93.5 -55q-32 24 -62 63z" />
    <glyph glyph-name="nacute" unicode="&#x144;" horiz-adv-x="616" 
d="M509 471q45 -49 45 -137t-10 -238l79 -9q0 -41 -23 -87h-249l-9 55q47 19 87 30q-3 115 -6 193.5t-15 106.5t-53 28q-62 0 -111 -22q-1 -43 -5.5 -140.5t-5.5 -154.5l78 -9q0 -41 -23 -87h-249l-9 55q50 19 90 30q-1 60 -6.5 166t-6.5 157q-37 4 -79 15l5 72
q70 19 158 19q11 -7 30 -43q34 17 83 33t60 16q100 0 145 -49zM228 620l158 131q59 -47 63 -87q-26 -25 -65.5 -52t-93.5 -55q-32 24 -62 63z" />
    <glyph glyph-name="Eng" unicode="&#x14a;" horiz-adv-x="785" 
d="M710 611l-3 -609q0 -134 -43 -190q-17 -23 -49 -38.5t-82.5 -15.5t-108 18t-82.5 42q1 73 16 166q40 11 98 11l19 -127q16 -4 47 -4q63 0 63 96v30l-336 548q-4 -293 -5 -442l69 -9q0 -41 -23 -87h-243l-9 55q56 23 84 29q0 3 -9 529l-83 26l8 61h260l291 -522l-15 435
l-83 26l8 61h259q16 -27 19 -79q-51 -8 -67 -10z" />
    <glyph glyph-name="eng" unicode="&#x14b;" horiz-adv-x="616" 
d="M346 -150l21 -1q33 0 48.5 34.5t15.5 85.5q0 117 -9 324q-3 65 -14.5 92.5t-52.5 27.5q-62 0 -111 -22q-1 -43 -5.5 -140.5t-5.5 -154.5l78 -9q0 -41 -23 -87h-249l-9 55q50 19 90 30q-1 60 -6.5 166t-6.5 157q-37 4 -79 15l5 72q70 19 158 19q11 -7 30 -43q34 17 83 33
t60 16q100 0 145 -49t45 -147q0 -22 -13 -337q-3 -60 -10 -97t-25 -69q-34 -61 -143 -61q-34 0 -84.5 15.5t-71.5 29.5q5 96 21 144q22 9 61 9l33 -1z" />
    <glyph glyph-name="Omacron" unicode="&#x14c;" horiz-adv-x="647" 
d="M330 94q166 0 166 255t-166 255q-72 0 -126 -22q-46 -96 -46 -222.5t38 -196t134 -69.5zM330 712q167 0 235 -87.5t68 -267.5q0 -113 -29 -193t-98 -128t-176 -48q-163 0 -236.5 91t-73.5 265q0 368 310 368zM208 889q69 7 121.5 7t126.5 -7q2 -9 2 -39l-3 -48
q-69 -6 -113 -6l-133 5q-5 23 -5 40z" />
    <glyph glyph-name="omacron" unicode="&#x14d;" horiz-adv-x="538" 
d="M295 440q-36 0 -82 -18q-13 -20 -24.5 -70.5t-11.5 -101.5q0 -94 28 -133.5t90.5 -39.5t90.5 39.5t28 136t-28.5 142t-90.5 45.5zM483.5 448.5q71.5 -71.5 71.5 -199t-71 -194.5t-189 -67t-188.5 67t-70.5 194.5t71 199t188 71.5t188.5 -71.5zM170 697q69 7 121.5 7
t126.5 -7q2 -9 2 -39l-3 -48q-69 -6 -113 -6l-133 5q-5 23 -5 40z" />
    <glyph glyph-name="Obreve" unicode="&#x14e;" horiz-adv-x="647" 
d="M330 94q166 0 166 255t-166 255q-72 0 -126 -22q-46 -96 -46 -222.5t38 -196t134 -69.5zM330 712q167 0 235 -87.5t68 -267.5q0 -113 -29 -193t-98 -128t-176 -48q-163 0 -236.5 91t-73.5 265q0 368 310 368zM480 928q0 -64 -43 -113t-114.5 -49t-112 48.5t-40.5 113.5
h82q0 -28 17.5 -48.5t54.5 -20.5q63 0 63 69h93z" />
    <glyph glyph-name="obreve" unicode="&#x14f;" horiz-adv-x="538" 
d="M295 440q-36 0 -82 -18q-13 -20 -24.5 -70.5t-11.5 -101.5q0 -94 28 -133.5t90.5 -39.5t90.5 39.5t28 136t-28.5 142t-90.5 45.5zM483.5 448.5q71.5 -71.5 71.5 -199t-71 -194.5t-189 -67t-188.5 67t-70.5 194.5t71 199t188 71.5t188.5 -71.5z" />
    <glyph glyph-name="OE" unicode="&#x152;" horiz-adv-x="888" 
d="M710 184l36 1l58 -7q16 -65 16 -107.5t-4 -70.5h-395q-36 -4 -92 -4q-154 0 -231.5 83t-77.5 260.5t72 269t232 91.5h478q4 -28 4 -54q0 -54 -16 -128q-31 -7 -58 -7l-36 1l-22 89h-149q-2 -82 -4 -197h102l10 69q50 0 98 -25v-204h-65q-24 37 -29 64h-117l-3 -212h171z
M387 596q-29 8 -59 8q-64 0 -123 -21q-45 -82 -45 -239q0 -249 169 -249q33 0 67 12z" />
    <glyph glyph-name="oe" unicode="&#x153;" horiz-adv-x="884" 
d="M644 87q38 0 140 46q32 -44 33 -74q-55 -34 -108 -52.5t-76 -18.5q-116 0 -181 67q-59 -67 -172 -67q-244 0 -244 266t244 266q120 0 177 -63q61 63 168 63t157.5 -66t51.5 -171q-12 -24 -25 -38l-286 5q2 -81 28.5 -122t92.5 -41zM201 125q23 -47 86 -47t86 46t23 131.5
t-22.5 133.5t-83.5 48q-42 0 -79 -15q-33 -67 -33 -158.5t23 -138.5zM626 437q-38 0 -71 -15q-21 -44 -29 -89q77 2 177 4q-5 100 -77 100z" />
    <glyph glyph-name="Racute" unicode="&#x154;" horiz-adv-x="656" 
d="M281 700q175 0 232 -50q52 -45 52 -139q0 -146 -152 -199l144 -217l86 -9q0 -43 -23 -86h-145l-196 299h-32l-3 -204l73 -8q0 -41 -23 -87h-247l-9 55q60 24 84 29q-2 123 -5 297t-4 233l-83 25q1 23 9 61h242zM360 593q-31 7 -83 7h-28q-2 -138 -2 -207l49 1
q59 1 93.5 24.5t34.5 91.5t-64 83zM229 808l158 131q59 -47 63 -87q-26 -25 -65.5 -52t-93.5 -55q-32 24 -62 63z" />
    <glyph glyph-name="racute" unicode="&#x155;" horiz-adv-x="449" 
d="M326 412q-2 5 -20 5t-62 -27q-4 -196 -5 -294l78 -10q0 -43 -23 -86h-249l-9 55q62 23 90 30l-11 324q-52 4 -87 15l7 72q27 12 195 16q9 -9 9 -35q88 43 111.5 43t58 -11.5t52.5 -24.5v-17q0 -82 -20 -152q-17 -7 -45 -7t-52 3q-3 13 -18 101zM140 616l158 131
q59 -47 63 -87q-26 -25 -65.5 -52t-93.5 -55q-32 24 -62 63z" />
    <glyph glyph-name="Rcommaaccent" unicode="&#x156;" horiz-adv-x="656" 
d="M385 -83q8 -30 8 -67.5t-33 -83.5t-61 -63q-31 14 -51 34q11 31 44 72l-17 3q-7 21 -7 49.5t2 51.5q40 8 60.5 8t54.5 -4zM281 700q175 0 232 -50q52 -45 52 -139q0 -146 -152 -199l144 -217l86 -9q0 -43 -23 -86h-145l-196 299h-32l-3 -204l73 -8q0 -41 -23 -87h-247
l-9 55q60 24 84 29q-2 123 -5 297t-4 233l-83 25q1 23 9 61h242zM360 593q-31 7 -83 7h-28q-2 -138 -2 -207l49 1q59 1 93.5 24.5t34.5 91.5t-64 83z" />
    <glyph glyph-name="rcommaaccent" unicode="&#x157;" horiz-adv-x="449" 
d="M240 -83q8 -30 8 -67.5t-33 -83.5t-61 -63q-31 14 -51 34q11 31 44 72l-17 3q-7 21 -7 49.5t2 51.5q40 8 59.5 8t55.5 -4zM326 412q-2 5 -20 5t-62 -27q-4 -196 -5 -294l78 -10q0 -43 -23 -86h-249l-9 55q62 23 90 30l-11 324q-52 4 -87 15l7 72q27 12 195 16q9 -9 9 -35
q88 43 111.5 43t58 -11.5t52.5 -24.5v-17q0 -82 -20 -152q-17 -7 -45 -7t-52 3q-3 13 -18 101z" />
    <glyph glyph-name="Rcaron" unicode="&#x158;" horiz-adv-x="656" 
 />
    <glyph glyph-name="rcaron" unicode="&#x159;" horiz-adv-x="449" 
d="M407 680l-159 -130l-158 130q16 24 53 60q10 -6 15 -8q58 -27 90 -52q39 28 67 41t38 19q39 -36 54 -60zM326 412q-2 5 -20 5t-62 -27q-4 -196 -5 -294l78 -10q0 -43 -23 -86h-249l-9 55q62 23 90 30l-11 324q-52 4 -87 15l7 72q27 12 195 16q9 -9 9 -35q88 43 111.5 43
t58 -11.5t52.5 -24.5v-17q0 -82 -20 -152q-17 -7 -45 -7t-52 3q-3 13 -18 101z" />
    <glyph glyph-name="Scaron" unicode="&#x160;" horiz-adv-x="573" 
d="M294 96q116 0 116 99q0 42 -44 71q-32 22 -87.5 47.5t-83 40.5t-63.5 42q-69 53 -69 132t61.5 131.5t166.5 52.5t224 -67q0 -72 -15 -156q-32 -10 -95 -10l-29 119q-37 11 -81 11t-68 -19t-24 -56.5t37.5 -67t90.5 -54t73 -34.5t51 -30t47 -38q41 -48 41 -107
q0 -104 -69 -160t-180 -56q-59 0 -129.5 20.5t-119.5 52.5q2 61 16 165q40 8 96 8l21 -120q55 -17 116 -17zM203 940q73 -37 105 -61q18 14 105 61q38 -36 53 -60l-158 -131l-159 131q14 22 54 60z" />
    <glyph glyph-name="scaron" unicode="&#x161;" horiz-adv-x="452" 
d="M399 477l1 -31q0 -78 -12 -102q-33 -12 -92 -12l-32 101q-13 5 -36 5t-37.5 -14t-14.5 -33t15 -34.5t31 -24.5t46.5 -23.5t46 -22.5t40 -24t37.5 -30q32 -38 32 -83q0 -77 -58.5 -119t-143.5 -42q-45 0 -98.5 16t-90.5 43q0 72 14 134q40 5 65 5t34 -1l12 -97
q25 -9 60 -9t55.5 14t20.5 39.5t-23 42.5t-63 35.5t-62 31t-47 32.5q-51 39 -51 96q0 71 49.5 110.5t133.5 39.5t168 -43z" />
    <glyph glyph-name="Umacron" unicode="&#x16a;" horiz-adv-x="754" 
d="M574 363l-4 250l-83 26l8 61h260q-1 0 0.5 -2t4 -8.5t5.5 -15.5q6 -16 8 -53q-51 -8 -67 -10l-2 -254q-2 -191 -69.5 -280t-230.5 -89t-227 83t-66 268.5t-4 273.5l-83 26l8 61h260q-1 0 0.5 -2t4 -8.5t5.5 -15.5q6 -16 8 -53q-51 -8 -67 -10l-3 -254q0 -111 12 -157.5
t30 -65.5q39 -40 124 -40q82 0 124 46q34 37 41 130q3 37 3 93zM297 889q69 7 122 7t126 -7q2 -9 2 -39l-3 -48q-69 -6 -113 -6l-133 5q-5 23 -5 40z" />
    <glyph glyph-name="umacron" unicode="&#x16b;" 
d="M509 512q19 0 24 -1q0 -51 -17 -88q-6 -220 -10 -325q45 -4 79 -15l-2 -70q-61 -19 -105 -19t-60 2q-12 24 -20 48q-83 -56 -120 -56q-179 0 -179 181q0 49 8 241q-53 0 -97 14q0 25 7 72q59 16 202 16q19 0 24 -1q0 -49 -17 -91v-202q0 -64 13.5 -93.5t58 -29.5t91.5 31
l-6 284q-44 2 -83 14q0 25 7 72q59 16 202 16zM193 697q69 7 121.5 7t126.5 -7q2 -9 2 -39l-3 -48q-69 -6 -113 -6l-133 5q-5 23 -5 40z" />
    <glyph glyph-name="Ubreve" unicode="&#x16c;" horiz-adv-x="754" 
d="M574 363l-4 250l-83 26l8 61h260q-1 0 0.5 -2t4 -8.5t5.5 -15.5q6 -16 8 -53q-51 -8 -67 -10l-2 -254q-2 -191 -69.5 -280t-230.5 -89t-227 83t-66 268.5t-4 273.5l-83 26l8 61h260q-1 0 0.5 -2t4 -8.5t5.5 -15.5q6 -16 8 -53q-51 -8 -67 -10l-3 -254q0 -111 12 -157.5
t30 -65.5q39 -40 124 -40q82 0 124 46q34 37 41 130q3 37 3 93zM551 928q0 -64 -43 -113t-114.5 -49t-112 48.5t-40.5 113.5h82q0 -28 17.5 -48.5t54.5 -20.5q63 0 63 69h93z" />
    <glyph glyph-name="ubreve" unicode="&#x16d;" 
d="M509 512q19 0 24 -1q0 -51 -17 -88q-6 -220 -10 -325q45 -4 79 -15l-2 -70q-61 -19 -105 -19t-60 2q-12 24 -20 48q-83 -56 -120 -56q-179 0 -179 181q0 49 8 241q-53 0 -97 14q0 25 7 72q59 16 202 16q19 0 24 -1q0 -49 -17 -91v-202q0 -64 13.5 -93.5t58 -29.5t91.5 31
l-6 284q-44 2 -83 14q0 25 7 72q59 16 202 16z" />
    <glyph glyph-name="Uring" unicode="&#x16e;" horiz-adv-x="754" 
d="M574 363l-4 250l-83 26l8 61h260q-1 0 0.5 -2t4 -8.5t5.5 -15.5q6 -16 8 -53q-51 -8 -67 -10l-2 -254q-2 -191 -69.5 -280t-230.5 -89t-227 83t-66 268.5t-4 273.5l-83 26l8 61h260q-1 0 0.5 -2t4 -8.5t5.5 -15.5q6 -16 8 -53q-51 -8 -67 -10l-3 -254q0 -111 12 -157.5
t30 -65.5q39 -40 124 -40q82 0 124 46q34 37 41 130q3 37 3 93zM361 898.5q-11 -12.5 -11 -34t11 -33.5t29.5 -12t29.5 12t11 33.5t-11 34t-29.5 12.5t-29.5 -12.5zM482.5 950q38.5 -32 38.5 -86.5t-38 -84t-92 -29.5t-93 30t-39 84t39.5 86t92.5 32t91.5 -32z" />
    <glyph glyph-name="uring" unicode="&#x16f;" 
d="M509 512q19 0 24 -1q0 -51 -17 -88q-6 -220 -10 -325q45 -4 79 -15l-2 -70q-61 -19 -105 -19t-60 2q-12 24 -20 48q-83 -56 -120 -56q-179 0 -179 181q0 49 8 241q-53 0 -97 14q0 25 7 72q59 16 202 16q19 0 24 -1q0 -49 -17 -91v-202q0 -64 13.5 -93.5t58 -29.5t91.5 31
l-6 284q-44 2 -83 14q0 25 7 72q59 16 202 16z" />
    <glyph glyph-name="Ydieresis" unicode="&#x178;" horiz-adv-x="678" 
d="M408 262l-1 -166l69 -9q0 -41 -23 -87h-243l-9 55q69 27 84 29q0 59 -2 177l-189 351l-88 27l8 61h260q18 -33 18 -79q-23 -4 -59 -9l107 -241h9l114 242q-34 7 -83 26l7 61h261q17 -25 18 -79q-39 -8 -78 -11zM318 875q8 -34 8 -54.5t-3 -47.5q-30 -8 -55.5 -8t-58.5 3
q-8 34 -8 54.5t3 47.5q30 8 55.5 8t58.5 -3zM481 875q8 -34 8 -54.5t-3 -47.5q-30 -8 -55.5 -8t-58.5 3q-8 34 -8 54.5t3 47.5q30 8 55.5 8t58.5 -3z" />
    <glyph glyph-name="Zcaron" unicode="&#x17d;" horiz-adv-x="596" 
d="M182 494l-31 -1q-28 0 -58 12q-18 78 -18 122t4 73h459q24 -32 32 -79l-352 -525h217l22 107l32 1q28 0 58 -12q17 -75 17 -118t-4 -74h-483q-25 32 -32 77l351 524h-190zM229 938q73 -37 105 -61q18 14 105 61q38 -36 53 -60l-158 -131l-159 131q14 22 54 60z" />
    <glyph glyph-name="zcaron" unicode="&#x17e;" horiz-adv-x="485" 
d="M442 183q16 -57 16 -99t-4 -84h-388q-20 29 -22 71l254 351h-103l-22 -99q-8 -1 -35.5 -1t-59.5 7q-14 72 -14 112t3 67h367q14 -28 14 -73l-243 -345h121l22 99q62 0 94 -6z" />
    <glyph glyph-name="florin" unicode="&#x192;" horiz-adv-x="542" 
d="M318 443q62 0 97 -7q0 -42 -17 -90h-106l-17 -363q-9 -212 -189 -212q-93 0 -156 58q8 77 30 124l7 15q19 3 51 3h17l14 -99q31 -11 47.5 -11t27.5 10t16 33q9 35 11 97l16 345h-83l-3 65q50 21 88 27l6 99q4 76 43 139q21 33 61.5 53t95.5 20q97 0 167 -57
q-6 -39 -18 -74t-30 -65q-15 -3 -41 -3h-17l-13 99q-1 0 -11 3q-34 8 -46 8q-38 0 -48 -26q-12 -31 -23 -191h23z" />
    <glyph glyph-name="circumflex" unicode="&#x2c6;" horiz-adv-x="458" 
d="M359 555q-73 37 -105 61q-18 -14 -105 -61q-38 36 -53 60l158 131l159 -131q-14 -22 -54 -60z" />
    <glyph glyph-name="caron" unicode="&#x2c7;" horiz-adv-x="458" 
d="M135 746q73 -37 105 -61q18 14 105 61q38 -36 53 -60l-158 -131l-159 131q14 22 54 60z" />
    <glyph glyph-name="breve" unicode="&#x2d8;" horiz-adv-x="458" 
d="M355 737q0 -64 -43 -113t-114.5 -49t-112 48.5t-40.5 113.5h82q0 -28 17.5 -48.5t54.5 -20.5q63 0 63 69h93z" />
    <glyph glyph-name="dotaccent" unicode="&#x2d9;" horiz-adv-x="154" 
d="M142 731q9 -45 9 -68.5t-4 -52.5q-40 -9 -67.5 -9t-66.5 3q-9 45 -9 68.5t4 52.5q40 9 67.5 9t66.5 -3z" />
    <glyph glyph-name="ring" unicode="&#x2da;" horiz-adv-x="472" 
d="M203 719.5q-11 -12.5 -11 -34t11 -33.5t29.5 -12t29.5 12t11 33.5t-11 34t-29.5 12.5t-29.5 -12.5zM324.5 771q38.5 -32 38.5 -86.5t-38 -84t-92 -29.5t-93 30t-39 84t39.5 86t92.5 32t91.5 -32z" />
    <glyph glyph-name="ogonek" unicode="&#x2db;" horiz-adv-x="302" 
d="M278 -170q-11 -26 -32 -53q-28 0 -64.5 5.5t-50 11.5t-27.5 14q-27 18 -27 53.5t18 83t28 55.5q17 3 42 3t43 -3q0 -1 -6 -25q-17 -68 -17 -82q0 -2 93 -63z" />
    <glyph glyph-name="tilde" unicode="&#x2dc;" horiz-adv-x="639" 
d="M163 565q-19 25 -32 53q18 25 91 80q19 14 37 14t63 -20t62 -24q88 42 89 43q24 -34 33 -53q-28 -41 -93 -83q-20 -14 -35 -14q-23 7 -62 23.5t-59 21.5q-15 -9 -47 -21.5t-47 -19.5z" />
    <glyph glyph-name="hungarumlaut" unicode="&#x2dd;" horiz-adv-x="476" 
d="M44 616l148 131q59 -47 63 -87q-24 -25 -61 -52t-88 -55q-32 24 -62 63zM224 616l148 131q59 -47 63 -87q-24 -25 -61 -52t-88 -55q-32 24 -62 63z" />
    <glyph glyph-name="Delta" unicode="&#x394;" horiz-adv-x="654" 
d="M269 704q18 2 57 2t57 -3q225 -579 238 -614.5t13 -53t-3 -35.5h-609q-3 30 -3 39.5t10 40.5zM328 547h-11l-170 -451h349z" />
    <glyph glyph-name="Delta" unicode="&#x2206;" horiz-adv-x="654" 
d="M269 704q18 2 57 2t57 -3q225 -579 238 -614.5t13 -53t-3 -35.5h-609q-3 30 -3 39.5t10 40.5zM328 547h-11l-170 -451h349z" />
    <glyph glyph-name="Omega" unicode="&#x3a9;" horiz-adv-x="742" 
d="M507 176q34 63 34 179t-42 182.5t-132 66.5q-57 0 -120 -23q-5 -9 -13 -25t-21.5 -72t-13.5 -118q0 -115 25.5 -176t99.5 -94q0 -50 -17 -96h-238l-3 67q58 25 99 33q-48 45 -74 118t-26 145q0 163 73 256t233.5 93t230.5 -84.5t70 -254.5q0 -73 -31.5 -151t-81.5 -122
l111 -33l-3 -67h-246q-17 46 -17 96q69 17 103 80z" />
    <glyph glyph-name="Omega" unicode="&#x2126;" horiz-adv-x="742" 
d="M507 176q34 63 34 179t-42 182.5t-132 66.5q-57 0 -120 -23q-5 -9 -13 -25t-21.5 -72t-13.5 -118q0 -115 25.5 -176t99.5 -94q0 -50 -17 -96h-238l-3 67q58 25 99 33q-48 45 -74 118t-26 145q0 163 73 256t233.5 93t230.5 -84.5t70 -254.5q0 -73 -31.5 -151t-81.5 -122
l111 -33l-3 -67h-246q-17 46 -17 96q69 17 103 80z" />
    <glyph glyph-name="pi" unicode="&#x3c0;" horiz-adv-x="566" 
d="M135 520l285 -24q21 10 104 36l27 -59q-10 -13 -45.5 -37.5t-65.5 -36.5q-4 -194 -7 -305q26 -2 86 -14l-2 -60q-19 -8 -70 -17.5t-99 -9.5q-16 32 -21 69l-16 335l-70 11q-4 -194 -6 -271.5t-14 -137.5q-17 -7 -87 -7q-11 47 -22 416q-35 -15 -90 -29l-27 59
q13 18 64 50t76 32z" />
    <glyph glyph-name="endash" unicode="&#x2013;" horiz-adv-x="500" 
d="M506 344q7 -31 7 -51l-5 -52q-93 -8 -158 -8l-344 7q-5 35 -5 48l5 53q93 9 158 9z" />
    <glyph glyph-name="emdash" unicode="&#x2014;" horiz-adv-x="1000" 
d="M970 343q10 -29 10 -50l-5 -52q-93 -8 -158 -8l-811 7q-5 33 -5 48l5 53q93 9 158 9z" />
    <glyph glyph-name="quoteleft" unicode="&#x2018;" horiz-adv-x="225" 
d="M59 478q-9 36 -9 82.5t39 101t73 76.5q35 -14 57 -39q-14 -41 -57 -92q11 0 25 -3q9 -30 9 -62.5t-3 -57.5q-41 -9 -68 -9t-66 3z" />
    <glyph glyph-name="quoteright" unicode="&#x2019;" horiz-adv-x="225" 
d="M200 731q9 -36 9 -82t-39 -101.5t-73 -76.5q-35 15 -57 40q13 39 57 91l-25 3q-9 31 -9 63.5t3 57.5q41 9 61.5 9t72.5 -4z" />
    <glyph glyph-name="quotesinglbase" unicode="&#x201a;" horiz-adv-x="210" 
d="M185 127q9 -36 9 -82t-39 -101.5t-73 -76.5q-35 15 -57 40q13 39 57 91l-25 3q-9 31 -9 63.5t3 57.5q41 9 61.5 9t72.5 -4z" />
    <glyph glyph-name="quotedblleft" unicode="&#x201c;" horiz-adv-x="394" 
d="M40 553q0 54 39 109t73 76q34 -14 57 -39q-15 -41 -58 -92q11 0 25 -3q10 -29 10 -62t-4 -58q-41 -9 -68 -9t-66 3q-8 40 -8 75zM247 478q-9 36 -9 82.5t39 101t73 76.5q34 -14 57 -39q-14 -41 -57 -92q12 0 25 -3q9 -30 9 -62.5t-3 -57.5q-41 -9 -68 -9t-66 3z" />
    <glyph glyph-name="quotedblright" unicode="&#x201d;" horiz-adv-x="394" 
d="M200 731q9 -36 9 -82t-39 -101.5t-73 -76.5q-35 15 -57 40q13 39 57 91l-25 3q-9 31 -9 63.5t3 57.5q41 9 61.5 9t72.5 -4zM397 656q0 -53 -39 -108.5t-73 -76.5q-35 15 -57 40q13 39 57 91l-25 3q-9 32 -9 64t3 57q41 9 61.5 9t72.5 -4q9 -45 9 -75z" />
    <glyph glyph-name="quotedblbase" unicode="&#x201e;" horiz-adv-x="411" 
d="M383 52q0 -53 -39 -108.5t-73 -76.5q-35 15 -58 40q15 39 58 91l-25 3q-10 35 -10 65.5t4 55.5q41 9 61.5 9t72.5 -4q9 -45 9 -75zM200 127q9 -36 9 -82t-39 -101.5t-73 -76.5q-35 15 -57 40q13 39 57 91l-25 3q-9 32 -9 64t3 57q41 9 61.5 9t72.5 -4z" />
    <glyph glyph-name="dagger" unicode="&#x2020;" horiz-adv-x="513" 
d="M290 716q19 -2 46 -25q-5 -41 -41 -166q86 24 163 38q22 -8 25 -16q0 -54 -26 -142q-33 0 -164 39q2 -5 18 -35q43 -81 43 -89l-71 -549q-35 0 -55 14l-67 536q1 15 20.5 56.5t33.5 65.5q-133 -38 -159 -38q-26 82 -26 142q2 8 25 16q85 -15 164 -39q-41 145 -41 161
q64 31 112 31z" />
    <glyph glyph-name="daggerdbl" unicode="&#x2021;" horiz-adv-x="513" 
d="M290 716q19 -2 46 -25q-5 -41 -41 -166q86 24 163 38q22 -8 25 -16q0 -54 -26 -142q-33 0 -164 39q2 -4 19 -30q42 -69 42 -79q-1 -20 -56 -105q133 38 159 38q26 -82 26 -142q-2 -8 -25 -16q-85 15 -164 39q41 -145 41 -161q-64 -31 -112 -31q-19 2 -46 25q5 41 41 166
q-86 -24 -163 -38q-22 8 -25 16q0 54 26 142q33 0 164 -39q-2 4 -18 31q-43 68 -43 78q1 25 56 105q-133 -38 -159 -38q-26 82 -26 142q2 8 25 16q85 -15 164 -39q-41 145 -41 161q64 31 112 31z" />
    <glyph glyph-name="bullet" unicode="&#x2022;" horiz-adv-x="408" 
d="M333 177q-43 -13 -99.5 -13t-126.5 8q-16 62 -16 118.5t6 99.5q62 12 120.5 12t108.5 -7q13 -67 13 -119t-6 -99z" />
    <glyph glyph-name="ellipsis" unicode="&#x2026;" horiz-adv-x="688" 
d="M188 127q9 -36 9 -61.5t-3 -57.5q-34 -9 -65 -9t-68 3q-10 40 -10 58.5t4 60.5q33 9 63.5 9t69.5 -3zM408 127q9 -36 9 -61.5t-3 -57.5q-34 -9 -65 -9t-68 3q-10 40 -10 58.5t4 60.5q33 9 63.5 9t69.5 -3zM628 127q9 -36 9 -61.5t-3 -57.5q-34 -9 -65 -9t-68 3
q-10 40 -10 58.5t4 60.5q33 9 63.5 9t69.5 -3z" />
    <glyph glyph-name="perthousand" unicode="&#x2030;" horiz-adv-x="1240" 
d="M85.5 690.5q45.5 55.5 136 55.5t137.5 -54t47 -146.5t-47 -151t-137 -58.5q-182 0 -182 204q0 95 45.5 150.5zM486.5 341.5q45.5 55.5 136 55.5t137 -54t46.5 -147t-46.5 -151t-136.5 -58q-182 0 -182 204q0 95 45.5 150.5zM709 677l-505 -696q-38 18 -71 49l479 710
q60 -25 97 -63zM192 425q12 -8 31.5 -8t33 10t18.5 31q8 32 8 68.5t-1.5 53.5t-6.5 40q-10 45 -53 45q-33 0 -48 -25q-12 -20 -13 -48t-1 -51.5t0.5 -36t4 -31.5t9.5 -29.5t18 -18.5zM593 77q12 -8 29.5 -8t29.5 8t18 18t10 28q4 23 4 56.5t-1.5 51t-6.5 39.5q-10 46 -53 46
q-33 0 -48 -25q-12 -20 -13 -48t-1 -51t0.5 -36t4 -31.5t9.5 -29t18 -18.5zM874.5 341.5q45.5 55.5 136 55.5t137 -54t46.5 -147t-46.5 -151t-136.5 -58q-182 0 -182 204q0 95 45.5 150.5zM981 77q12 -8 29.5 -8t29.5 8t18 18t10 28q4 23 4 56.5t-1.5 51t-6.5 39.5
q-10 46 -53 46q-33 0 -48 -25q-12 -20 -13 -48t-1 -51t0.5 -36t4 -31.5t9.5 -29t18 -18.5z" />
    <glyph glyph-name="guilsinglleft" unicode="&#x2039;" horiz-adv-x="294" 
d="M53 245q-3 6 -3 17.5t1 16.5l47 66q26 36 84 96q32 -8 80 -50q-82 -122 -89 -129q11 -13 18 -23l70 -106q-38 -45 -81 -49q-53 53 -82 95z" />
    <glyph glyph-name="guilsinglright" unicode="&#x203a;" horiz-adv-x="294" 
d="M281 279q1 -5 1 -16.5t-3 -17.5l-45 -66q-24 -35 -82 -95q-19 2 -39.5 14t-41.5 35q49 80 88 129q-8 8 -89 129q43 41 80 50q55 -55 84 -96z" />
    <glyph glyph-name="fraction" unicode="&#x2044;" horiz-adv-x="478" 
d="M555 677l-505 -696q-38 18 -71 49l479 710q60 -25 97 -63z" />
    <glyph glyph-name="Euro" unicode="&#x20ac;" horiz-adv-x="634" 
d="M398 234q-64 -12 -106 -12t-63 1q11 -64 40.5 -97.5t88 -33.5t82.5 16l21 90l83 -3q15 -103 15 -167q-19 -15 -73.5 -27.5t-127.5 -12.5q-115 0 -181.5 56t-85.5 182l-73 3q-3 23 -3 47l3 32q31 8 67 11q-1 15 -1 47l-66 3q-3 23 -3 47l3 32q34 8 71 11q33 253 275 253
q62 0 92.5 -11t45.5 -20q19 -11 46 -36q0 -56 -14 -142q-32 -3 -83 -3l-30 103q-20 10 -54 10q-67 0 -93 -14l-10 -5q-39 -53 -39 -135l173 -6q2 -11 2 -29l-2 -50q-64 -12 -107 -12t-70 1q0 -25 1 -44l176 -6q2 -11 2 -29z" />
    <glyph glyph-name="trademark" unicode="&#x2122;" horiz-adv-x="808" 
d="M37 559q-17 63 -17 87t1 28h314q1 -6 1 -21l-7 -94q-16 -1 -55 -1l-13 45h-39q-2 -90 -4 -145l57 -9q0 -41 -9 -66h-176l-2 54q45 14 61 16l-13 150h-38l-12 -45zM382 453l32 157q-39 6 -50 8l1 57h153l37 -148h10l31 148h146q6 -41 6 -66q-33 -2 -49 -2l37 -149l57 -9
q0 -41 -9 -66h-176l-2 54q41 14 56 20l-27 136l-52 -160h-42l-65 159l-16 -135l48 -8q0 -41 -9 -66h-176l-2 54q46 13 61 16z" />
    <glyph glyph-name="partialdiff" unicode="&#x2202;" horiz-adv-x="654" 
d="M332 356q-62 0 -96 -44t-34 -103.5t25 -93t70.5 -33.5t80.5 38t49.5 87t19.5 107q-16 11 -21 14.5t-16.5 9.5t-21.5 10q-26 8 -56 8zM451 421l1 32q0 94 -49 151.5t-161 83.5q0 49 33 72q122 -20 217 -114q47 -45 74.5 -113t27.5 -134.5t-11.5 -121t-36.5 -107.5
t-60.5 -94t-88.5 -66t-116 -25q-97 0 -158.5 64.5t-61.5 164.5t69 166t193 66q78 0 128 -25z" />
    <glyph glyph-name="product" unicode="&#x220f;" horiz-adv-x="754" 
d="M648 611l-5 -515l69 -9q0 -41 -23 -87h-243l-9 55q56 23 84 29q0 206 -4 522h-262q-2 -150 -2 -510l69 -9q0 -41 -23 -87h-243l-9 55q56 23 84 29q0 3 -9 529l-83 26l8 61h649q16 -27 19 -79q-51 -8 -67 -10z" />
    <glyph glyph-name="summation" unicode="&#x2211;" horiz-adv-x="627" 
d="M584 700q0 -87 -23 -183q-52 -5 -96 -5l-13 95h-223l172 -267q1 -2 1 -10l-1 -15l-158 -222h212l13 94l96 -6q22 -78 23 -181h-542l-7 35l232 291l-217 330l-28 9l2 35h557z" />
    <glyph glyph-name="minus" unicode="&#x2212;" horiz-adv-x="596" 
d="M537 320q3 -27 3 -45l-3 -42q-79 -15 -134 -15l-328 7q-5 25 -5 42l4 43q78 15 134 15z" />
    <glyph glyph-name="radical" unicode="&#x221a;" horiz-adv-x="610" 
d="M523 762q39 0 77 -5l-236 -759q-14 -3 -33 -3l-111 5l-127 398q-55 3 -88 12l4 82q57 15 168 15q31 0 44 -2q0 -23 -13 -81q2 -9 6.5 -23.5t16 -54t21.5 -74.5q29 -99 44 -148l167 635q21 3 60 3z" />
    <glyph glyph-name="infinity" unicode="&#x221e;" horiz-adv-x="955" 
d="M920 262q0 -82 -51.5 -137t-146.5 -55q-56 0 -115 29.5t-133 84.5q-71 -53 -130.5 -83.5t-118.5 -30.5q-95 0 -142.5 52t-47.5 133.5t52.5 136t142.5 54.5q58 0 117.5 -30t133.5 -85q151 115 246.5 115t144 -51t48.5 -133zM728 187q20 0 46 11q10 15 10 54.5t-16.5 61
t-46.5 21.5q-45 0 -145 -77q82 -71 152 -71zM284.5 321.5q-27.5 10.5 -48.5 10.5q-32 0 -54 -11q-10 -33 -10 -65.5t19.5 -52t46 -19.5t59.5 19t83 58q-34 27 -51 38.5t-44.5 22z" />
    <glyph glyph-name="integral" unicode="&#x222b;" horiz-adv-x="450" 
d="M163 4l-10 537q0 208 185 208q71 -27 91 -39q-8 -43 -21 -81q-68 0 -101 22q-26 -21 -26 -124v-519q0 -130 -49 -188q-20 -23 -54.5 -38.5t-81.5 -15.5q-71 27 -91 39q17 43 28 81q67 0 101 -24q29 23 29 142z" />
    <glyph glyph-name="approxequal" unicode="&#x2248;" 
d="M87 286q-16 27 -27 59q13 18 65.5 50t75.5 32l203 -50q18 10 104 36q16 -27 27 -59q-12 -17 -65 -49.5t-75 -32.5l-204 50q-18 -10 -104 -36zM87 111q-17 29 -27 59q13 18 65.5 50t75.5 32l203 -50q18 10 104 36q16 -27 27 -59q-12 -17 -65 -49.5t-75 -32.5l-204 50
q-18 -10 -104 -36z" />
    <glyph glyph-name="notequal" unicode="&#x2260;" horiz-adv-x="639" 
d="M570 140q-91 -15 -151.5 -15t-111.5 1l-61 -134q-50 6 -73 32l45 104l-150 4q-5 25 -5 42l4 44q90 15 133.5 15t62.5 -1l26 62l-221 5q-5 25 -5 42l4 43q90 15 152 15t115 -1l51 118q3 -1 16.5 -4t21.5 -5.5t15 -5.5q16 -8 32 -20l-39 -85l139 -2q3 -27 3 -45l-3 -42
q-91 -15 -154 -15h-33l-28 -61l213 -4q5 -26 5 -45z" />
    <glyph glyph-name="lessequal" unicode="&#x2264;" horiz-adv-x="529" 
d="M41 341q-6 6 -6 27.5t4 26.5q243 153 319 187q27 13 60 26l50 -89q-188 -107 -221 -127l-39 -20l39 -20l221 -127l-50 -89q-60 22 -90 40q-249 145 -287 165zM492 90q3 -27 3 -45l-3 -42q-79 -15 -134 -15l-328 7q-5 25 -5 42l4 43q78 15 134 15z" />
    <glyph glyph-name="greaterequal" unicode="&#x2265;" horiz-adv-x="526" 
d="M464 395q4 -5 4 -26.5t-6 -27.5q-38 -20 -269 -155q-42 -24 -108 -50l-50 89q204 118 260 147l-39 20l-221 127l50 89q60 -22 136.5 -65.5t242.5 -147.5zM492 90q3 -27 3 -45l-3 -42q-79 -15 -134 -15l-328 7q-5 25 -5 42l4 43q78 15 134 15z" />
    <glyph glyph-name="lozenge" unicode="&#x25ca;" horiz-adv-x="614" 
d="M275 704h64q165 -221 185 -250.5t35 -56.5q30 -54 30 -60q-142 -220 -163 -249q-36 -53 -84 -99q-16 -2 -37.5 -2t-32.5 2q-46 43 -68 75t-64 96.5t-78.5 120.5t-36.5 57q26 60 59 106zM308 590q-158 -223 -176 -249q7 -8 23.5 -29t26.5 -33.5t122 -176.5h4
q102 149 124 177q16 25 49 62q-163 228 -167.5 237t-5.5 12z" />
    <glyph glyph-name="CR" unicode="&#xe001;" horiz-adv-x="279" 
 />
    <glyph glyph-name="Ll" unicode="&#xe002;" horiz-adv-x="810" 
d="M685 182q24 4 36.5 4t54.5 -7q4 -8 11.5 -51t7.5 -69.5t-6 -58.5h-723l-9 55q49 20 84 29q0 3 -9 529l-83 26l8 61h260q-1 0 0.5 -2t4 -8.5t5.5 -15.5q6 -16 8 -53q-51 -8 -67 -10q-4 -345 -5 -515h400zM684 415q24 4 36.5 4t54.5 -7q4 -8 11.5 -51t7.5 -70t-6 -58h-405
l-9 55q49 20 84 29q-1 61 -4.5 163.5t-4.5 132.5l-83 26l8 61h260q-1 0 0.5 -2t4 -8.5t5.5 -15.5q6 -16 8 -53q-51 -8 -67 -10q-4 -218 -5 -282h82z" />
    <glyph glyph-name="Lu" unicode="&#xe003;" horiz-adv-x="950" 
d="M785 182q24 4 36.5 4t54.5 -7q4 -8 11.5 -51t7.5 -69.5t-6 -58.5h-823l-9 55q49 20 84 29q0 3 -9 529l-83 26l8 61h260q-1 0 0.5 -2t4 -8.5t5.5 -15.5q6 -16 8 -53q-51 -8 -67 -10q-4 -345 -5 -515h500zM947 700q15 -30 18 -79q0 -10 -67 -10l-2 -134q-2 -111 -55.5 -180
t-172.5 -69t-171 63.5t-54 177.5q-2 88 -4 144l-83 26l8 61h260q-1 0 0.5 -2t4 -8.5t5.5 -15.5q6 -16 8 -53q-51 -8 -67 -10l-3 -134q0 -70 20.5 -106.5t75.5 -36.5q98 0 98 149l-4 130l-83 26l8 61h260z" />
    <glyph glyph-name="o2" unicode="&#xe004;" horiz-adv-x="558" 
d="M194.5 324.5q20.5 -43.5 76.5 -43.5t75.5 42.5t19.5 121.5t-19.5 123t-68 44t-79.5 -21q-25 -61 -25 -142t20.5 -124.5zM95 641.5q58 71.5 179 71.5t175 -65.5t54 -193.5t-57 -201t-173 -73q-236 0 -236 262q0 128 58 199.5zM528 134q7 -31 7 -51l-5 -52q-93 -8 -158 -8
l-344 7q-5 35 -5 48l5 53q93 9 158 9z" />
    <glyph glyph-name="alternateE" unicode="&#xe005;" horiz-adv-x="575" 
d="M238 601q-3 -102 -5 -136h98l8 47q38 0 80 -17v-175l-65 -8q-16 34 -20 57h-101q-4 -102 -4 -126h205l12 53l74 -3q14 -34 14 -84.5t-2 -62.5h-506l-3 65q44 16 85 23q-4 186 -10 374q-22 2 -88 24l5 67h502q2 -13 2 -39q0 -54 -14 -120q-15 0 -78 -3l-16 64h-173z
M526 94q7 -26 7 -41l-5 -52q-93 -8 -158 -8l-344 7q-5 35 -5 48l5 43q93 9 158 9z" />
    <glyph glyph-name="alternateQ" unicode="&#xe006;" horiz-adv-x="685" 
d="M892 -282q-25 -5 -76 -5t-133 24t-146 53q-170 77 -263 77q-24 0 -89 -15.5t-70 -15.5q-15 12 -23.5 28.5t-10.5 37.5q123 59 178 59t143.5 -27.5t188.5 -55.5t172 -28q93 0 197 81q52 -19 52 -52q0 -5 -14 -32t-44 -66t-62 -63zM330 94q166 0 166 255t-166 255
q-72 0 -126 -22q-46 -96 -46 -222.5t38 -196t134 -69.5zM330 712q167 0 235 -87.5t68 -267.5q0 -113 -29 -193t-98 -128t-176 -48q-163 0 -236.5 91t-73.5 265q0 368 310 368z" />
    <glyph glyph-name="dinbat1" unicode="&#xe007;" horiz-adv-x="575" 
d="M132 139l3 -103q0 -46 -15 -49q-21 0 -30 9q-28 28 -54 79.5t-26 111t19 83.5t51 24t57 -25q11 -11 17 -11q28 0 56 20t28 44q0 6 -35.5 6t-58 23t-22.5 54t9.5 48t24.5 24q24 12 48 12t42 -16t28 -16q26 0 54 16q69 41 104 41t52 -24t17 -55t-11 -53.5t-20.5 -30
t-16.5 -11.5q-11 16 -29.5 27t-32.5 11q-55 0 -55 -55q0 -25 27.5 -45t56.5 -20q8 0 25 18t49 18q70 0 70 -106q0 -61 -26 -112.5t-54 -79.5q-9 -9 -30 -9q-5 5 -5 55l2 97q-3 0 -17 -10t-24.5 -10t-18 3t-11.5 7t-13 12t-14 13q-15 -20 -26 -42q59 -36 69 -55
q0 -6 -30 -37.5t-39 -31.5q-18 0 -41 35q-31 -31 -34 -36q-12 2 -43 28.5t-31 36.5t35 33.5t35 25.5q0 12 -26 42q-26 -34 -50 -34t-40 20zM185 423.5q-6 -6.5 -6 -15.5t6 -14.5t14.5 -5.5t15 5.5t6.5 14.5t-6.5 15.5t-15 6.5t-14.5 -6.5z" />
    <glyph glyph-name="dingbat2" unicode="&#xe008;" horiz-adv-x="1162" 
d="M736 67l137 3q23 0 23 -23q0 -28 -65.5 -45t-182.5 -17t-191.5 40t-74.5 84q0 15 5 33t5 25t-12 12t-42.5 9t-51 9.5t-59.5 29.5t-47 24q-16 0 -32 -58.5t-16 -94.5t3 -48.5t5.5 -19.5t2.5 -9q0 -15 -22 -15q-56 0 -88.5 40t-32.5 100.5t14 100t30 57t30 30.5t14 18
q-2 16 -2 29q0 46 37 85.5t86.5 39.5t88.5 -21.5t39 -65.5q0 -30 -11 -51.5t-11 -25.5q8 -12 36.5 -12t28.5 5q-12 28 -12 44q0 71 64 108.5t144 37.5t181 -40.5t101 -64.5q-3 -17 -25 -17q-9 0 -97 15t-123 15q-64 0 -64 -33q0 -15 31 -22q36 -9 75 -13.5t75 -10.5
q88 -16 93 -16t7 0.5t4 2.5t3 4.5t10 20.5q19 28 72 42t101 14t85 -10.5t37 -25.5t-19.5 -21.5t-47 -10.5t-55.5 -12t-47.5 -32.5t-19.5 -64t26 -70.5t57 -46t57 -30t26 -26q0 -31 -35 -31q-75 0 -130 27t-119 97q-48 -4 -142.5 -21.5t-94.5 -27.5q0 -19 51.5 -34.5
t86.5 -15.5zM180 399q0 -11 7.5 -19t19 -8t19.5 8t8 19t-8 19t-19.5 8t-19 -8t-7.5 -19z" />
    <glyph glyph-name="alternatedagger" unicode="&#xe009;" horiz-adv-x="457" 
d="M172 420l-142 -18h-6q-3 89 -3 127v11h13q34 0 135 -11q-24 177 -24 202q101 3 146 3h12l1 -21q0 -17 -17 -184l149 11l-3 -138q-24 0 -148 17l20 -449q-44 -2 -83.5 -2t-69.5 5z" />
    <glyph glyph-name="uno" unicode="&#xe00a;" horiz-adv-x="360" 
d="M283 620q0 -12 -10 -524l83 -9q0 -44 -23 -87h-278l-9 55q74 28 112 36q0 61 -9 448q-70 -25 -97 -28q-26 46 -27 88l211 73q35 -19 47 -52z" />
    <glyph glyph-name="dos" unicode="&#xe00b;" horiz-adv-x="473" 
d="M167 469l-36 -1q-18 0 -58 7q-19 52 -20 131q27 27 77.5 50.5t95.5 23.5q92 0 148.5 -57t56.5 -126.5t-26 -117.5t-97 -131l-135 -159h169q11 79 14 89q12 2 37 2t52 -11q14 -70 14 -134l-1 -35h-425q-17 36 -17 77q140 160 198 229.5t71.5 99.5t13.5 75t-20 77.5
t-61 32.5q-19 0 -28 -1q-5 -22 -13 -66.5t-10 -54.5z" />
    <glyph glyph-name="tres" unicode="&#xe00c;" horiz-adv-x="474" 
d="M292 507q0 85 -90 85q-9 0 -23 -2l-23 -122q-70 0 -93 6q-20 56 -20 121v9q23 28 75.5 50.5t91.5 22.5q93 0 153 -45.5t60 -111.5q0 -87 -87 -142q48 -15 81 -58.5t33 -109.5t-43 -120.5t-100 -80t-123.5 -25.5t-154.5 30q2 51 22 80l30 -6q48 -12 78.5 -12t46.5 3t45 13
t48 37t19 72t-31 75.5t-80 30.5q-3 0 -69 -6q-10 42 -10 55t2 33l59 8q43 6 73 35.5t30 74.5z" />
    <glyph glyph-name="cuatro" unicode="&#xe00d;" horiz-adv-x="532" 
d="M525 248l1 -23q0 -39 -17 -68h-86l-7 -156q-17 -4 -46 -4t-53 3l-7 157h-275q-20 29 -20 61q0 8 2 12l255 440h162q0 -4 -9 -421zM308 250l-7 251l-149 -253q52 0 156 2z" />
    <glyph glyph-name="kcommaaccent" unicode="&#xe00e;" horiz-adv-x="591" 
d="M370 -83q8 -30 8 -67.5t-33 -83.5t-61 -63q-31 14 -51 34q11 31 44 72l-17 3q-7 21 -7 49.5t2 51.5q40 8 59.5 8t55.5 -4zM231 173l-1 -77l78 -9q0 -41 -23 -87h-249l-9 55q62 23 90 30l-19 555q-47 5 -79 15q0 37 7 72q59 16 202 16q19 0 24 -1q0 -52 -13 -91
q-6 -240 -6 -356l119 118l-62 8q0 41 23 87h249l9 -55q-62 -23 -90 -30l-110 -110l140 -217l78 -9q0 -41 -23 -87h-128l-148 232z" />
    <glyph glyph-name="fi" unicode="&#xfb01;" horiz-adv-x="611" 
d="M110 89q0 96 -6 330h-77l-3 55q36 14 80 22v41q0 80 48 141q26 33 77 52t114.5 19t123.5 -13.5t92 -28.5q0 -64 -9 -125q-34 -4 -84 -4l-17 1l-30 71q-3 0 -33 4.5t-65 4.5t-64 -32t-29 -98v-26l307 9q13 0 31 -13q-2 -18 -5.5 -35.5t-5 -26.5t-3.5 -19q-1 -37 -4 -102
q-5 -141 -5 -218q36 0 74 -8q0 -42 -17 -90h-249l-10 55q46 21 90 30q-5 198 -10 327l-193 9q-8 -274 -8 -324q40 0 82 -8q0 -42 -17 -90h-262l-3 55q46 22 90 35z" />
    <glyph glyph-name="fl" unicode="&#xfb02;" horiz-adv-x="611" 
d="M553 658l-9 -560q36 0 74 -8q0 -42 -17 -90h-250l-10 55q46 19 90 30q-1 107 -5 301.5t-5 257.5q-44 16 -88.5 16t-75 -33t-30.5 -103v-12l13 1q57 0 112 -15q0 -36 -17 -79h-108l-6 -321q70 -10 81 -10q0 -40 -17 -88h-262l-3 55q46 22 90 34q-6 318 -6 330h-77l-3 55
q36 17 80 27v36q0 81 56 146.5t156 65.5q158 0 214 -6q13 0 35 -22q-7 -26 -12 -63z" />
    </font>
</defs>
</svg>
